<svg width="16" height="16" viewBox="0 0 16 16" fill="none" xmlns="http://www.w3.org/2000/svg">
<path d="M8 0C3.58165 0 0 3.58165 0 8C0 12.4184 3.58165 16 8 16C12.4184 16 16 12.4184 16 8C16 3.58165 12.4184 0 8 0ZM8 0.470588C12.1586 0.470588 15.5294 3.84141 15.5294 8C15.5294 11.4428 13.2165 14.3398 10.0616 15.2371C9.99745 15.1401 9.95073 15.027 9.95404 14.8943C9.96675 14.3969 9.95404 13.2375 9.95404 12.8116C9.95404 12.0808 9.49173 11.5625 9.49173 11.5625C9.49173 11.5625 13.1195 11.6036 13.1195 7.73254C13.1195 6.23889 12.3401 5.4614 12.3401 5.4614C12.3401 5.4614 12.7496 3.86649 12.1976 3.19026C11.5788 3.12343 10.4702 3.78186 9.99724 4.08915C9.99724 4.08915 9.24845 3.78217 8.00092 3.78217C6.75339 3.78217 6.00368 4.08915 6.00368 4.08915C5.53026 3.78186 4.42213 3.12343 3.80331 3.19026C3.25131 3.86649 3.66085 5.4614 3.66085 5.4614C3.66085 5.4614 2.88051 6.23797 2.88051 7.73162C2.88051 11.6027 6.50827 11.5616 6.50827 11.5616C6.50827 11.5616 6.14297 11.9733 6.0625 12.579C5.81224 12.6677 5.46613 12.7748 5.13603 12.7748C4.34874 12.7748 3.75054 12.0092 3.53125 11.6553C3.31478 11.3062 2.87137 11.0129 2.45772 11.0129C2.18525 11.0129 2.05147 11.1494 2.05147 11.3051C2.05147 11.4609 2.43343 11.5691 2.68566 11.8575C3.21743 12.466 3.20793 13.8355 5.1011 13.8355C5.32424 13.8355 5.72492 13.7848 6.04596 13.7408C6.04388 14.1851 6.03892 14.6184 6.04596 14.8934C6.04928 15.0263 6.0027 15.14 5.93842 15.2371C2.78351 14.3398 0.470588 11.4428 0.470588 8C0.470588 3.84141 3.84141 0.470588 8 0.470588Z" fill="white"/>
</svg>
