<svg width="16" height="16" viewBox="0 0 16 16" fill="none" xmlns="http://www.w3.org/2000/svg">
<path d="M14.9738 7.06876L8.93126 1.02626C8.67501 0.768765 8.33751 0.640015 8.00001 0.640015C7.66251 0.640015 7.32501 0.768765 7.06876 1.02626L5.87376 2.22126L7.35251 3.70001C7.84376 3.41126 8.48376 3.47376 8.90501 3.89501C9.32626 4.31626 9.38751 4.95626 9.09876 5.44626L10.5525 6.90001C11.0438 6.61126 11.6838 6.67376 12.105 7.09501C12.605 7.59501 12.605 8.40501 12.105 8.90501C11.605 9.40501 10.795 9.40501 10.295 8.90501C9.87376 8.48376 9.81126 7.84376 10.1 7.35251L8.64626 5.89876C8.54251 5.96001 8.43376 6.00501 8.32001 6.03376V9.96501C8.87126 10.1075 9.28001 10.6038 9.28001 11.2C9.28001 11.9075 8.70751 12.48 8.00001 12.48C7.29251 12.48 6.72001 11.9075 6.72001 11.2C6.72001 10.6038 7.12876 10.1075 7.68001 9.96501V6.03376C7.46626 5.97876 7.26251 5.87251 7.09501 5.70501C6.67376 5.28376 6.61251 4.64376 6.90126 4.15376L5.42126 2.67376L1.02626 7.06876C0.511265 7.58251 0.511265 8.41751 1.02626 8.93126L7.06876 14.9738C7.32501 15.2313 7.66251 15.36 8.00001 15.36C8.33751 15.36 8.67501 15.2313 8.93126 14.9738L14.9738 8.93126C15.4888 8.41751 15.4888 7.58251 14.9738 7.06876Z" fill="white"/>
</svg>
