<svg width="1300" height="1300" viewBox="0 0 1300 1300" fill="none" xmlns="http://www.w3.org/2000/svg">
<mask id="mask0_1_1079" style="mask-type:alpha" maskUnits="userSpaceOnUse" x="0" y="0" width="1296" height="1296">
<circle cx="647.869" cy="647.869" r="647.869" fill="#D9D9D9"/>
</mask>
<g mask="url(#mask0_1_1079)">
<path d="M1003.04 1182.75C1000.07 1184.87 996.668 1186.99 993.694 1189.12C990.295 1191.24 987.321 1193.37 983.923 1195.07C980.949 1196.76 978.4 1198.46 975.426 1200.16C975.001 1200.59 974.576 1200.59 974.151 1201.01C964.38 1206.96 954.184 1212.48 943.988 1217.58C941.014 1219.28 937.615 1220.98 934.641 1222.26C934.641 1222.26 934.217 1222.68 933.792 1222.68C930.393 1224.38 926.994 1226.08 923.596 1227.78C916.798 1231.18 909.576 1234.15 902.779 1237.12C899.38 1238.82 895.556 1240.1 892.158 1241.37C888.759 1242.65 884.936 1244.35 881.537 1245.62C878.138 1246.9 874.315 1248.59 870.916 1249.87C870.916 1249.87 870.916 1249.87 870.491 1249.87C867.092 1251.14 863.269 1252.42 859.87 1253.69C852.223 1256.24 844.151 1258.79 836.504 1261.34C833.955 1262.19 830.981 1263.04 828.432 1263.89C820.36 1266.44 812.289 1268.56 804.217 1270.26C801.243 1271.11 798.269 1271.54 794.87 1272.39C787.223 1274.09 779.151 1275.78 771.504 1277.48C769.805 1277.91 768.53 1277.91 766.831 1278.33C764.282 1278.76 761.308 1279.18 758.759 1279.61C754.936 1280.03 751.537 1280.88 747.713 1281.31C746.014 1281.73 744.315 1281.73 742.615 1282.16C740.491 1282.58 737.942 1283.01 735.393 1283.01C728.596 1283.86 721.374 1284.71 714.576 1285.56C712.452 1285.98 709.903 1285.98 707.779 1286.41H707.354C704.38 1286.83 701.406 1286.83 698.432 1287.26C695.458 1287.68 692.485 1287.68 689.511 1287.68C687.811 1287.68 685.687 1288.1 683.988 1288.1C680.589 1288.1 677.615 1288.53 674.642 1288.53C670.393 1288.53 666.57 1288.95 662.321 1288.95C658.073 1288.95 654.249 1288.95 650.001 1288.95C647.027 1288.95 644.053 1288.95 641.079 1288.95C461.798 1286.41 300.785 1210.36 185.655 1089.71C185.655 1089.71 185.655 1089.28 185.23 1089.28C172.485 1077.81 183.53 1016.63 234.936 977.974C299.511 929.118 454.151 898.53 454.151 898.53C454.151 898.53 514.053 888.758 736.243 935.066C866.243 962.255 965.23 1001.76 1020.46 1108.82C1031.93 1130.92 1043.4 1164.9 1003.04 1182.75Z" fill="white"/>
<path d="M737.517 930.392C819.086 946.961 906.177 964.804 973.302 1018.76C995.818 1037.03 1010.69 1063.79 1023.01 1089.71C1028.96 1102.45 1034.9 1115.62 1039.58 1129.64C1042.13 1138.99 1045.95 1149.61 1043.82 1160.65C1043.4 1163.63 1040.85 1167.45 1038.73 1169.58C1028.96 1179.35 1018.33 1185.29 1007.71 1192.94C945.262 1236.27 873.465 1266.86 799.119 1283.01C633.432 1319.12 454.151 1291.08 308.432 1203.99C260.001 1174.67 215.393 1138.99 177.158 1096.93C172.909 1091.83 172.909 1083.33 172.909 1077.81C173.334 1065.07 176.733 1052.75 180.981 1041.27C191.177 1014.93 204.347 988.595 226.864 970.327C243.007 959.281 260.426 949.935 278.269 942.288C334.347 918.497 393.4 901.928 454.151 895.131C459.249 894.706 460.099 901.928 455.001 902.778C396.798 914.673 339.021 932.516 285.066 956.732C265.524 966.503 244.707 975 228.988 990.294C214.119 1006.44 203.498 1026.41 195.001 1046.8C189.478 1059.12 185.655 1078.66 187.354 1088.43C214.119 1120.29 245.556 1148.33 279.543 1172.55C465.622 1302.55 748.138 1311.05 946.112 1202.71C963.955 1192.94 981.374 1181.9 997.942 1170.42C1006.01 1164.9 1014.51 1160.23 1020.88 1153.86C1021.31 1153.43 1020.88 1153.86 1020.88 1154.28C1020.88 1154.71 1020.46 1155.13 1020.46 1155.13C1020.88 1150.03 1019.18 1143.24 1017.06 1136.44C1009.41 1111.8 997.093 1085.88 983.923 1063.37C963.106 1029.8 927.844 1008.56 892.158 991.569C867.517 980.098 841.602 971.177 815.262 962.68C788.923 954.183 762.158 946.961 735.393 940.588C728.596 938.889 730.72 929.118 737.517 930.392Z" fill="black"/>
<rect width="1300" height="1300" fill="#81BDD6"/>
<path d="M1144.09 1446.14H69.6758C69.6758 1446.14 132.976 1312.74 161.016 1160.65C180.558 1055.29 195.003 993.693 249.807 959.706C288.467 935.915 397.225 901.503 474.545 890.457C505.983 886.209 568.434 881.536 622.388 885.784C663.173 890.882 747.29 914.673 779.578 923.595C828.009 937.189 932.944 977.549 979.251 1020.03C997.519 1037.03 1040.85 1121.99 1068.89 1245.2C1101.18 1385.39 1144.09 1446.14 1144.09 1446.14Z" fill="white"/>
<path d="M1153.86 1451.24C833.955 1453.79 385.328 1459.74 70.0992 1459.31C60.7528 1459.74 53.9554 1449.12 58.2037 1440.62C65.8508 1424.48 73.073 1407.91 79.8704 1390.91C110.459 1315.29 136.374 1237.55 152.093 1157.68C164.838 1095.23 175.034 1025.56 222.191 978.399C235.361 965.229 251.504 955.033 268.073 947.386C301.635 932.092 336.047 919.346 370.883 908.301C440.982 885.36 515.328 875.588 589.249 876.863C626.21 876.863 663.596 882.811 699.707 891.307C715.426 894.281 737.517 901.078 752.812 905.327L765.982 909.15C768.531 910.425 769.38 915.523 770.655 918.072C771.504 919.771 772.354 920.196 773.629 920.621C775.753 921.046 779.151 918.072 781.276 918.922C824.184 931.667 865.393 950.36 904.903 971.177C932.942 986.895 961.831 1002.19 984.772 1025.13C1004.74 1050.62 1020.88 1079.08 1035.75 1107.97C1071.86 1182.32 1082.06 1266.44 1109.67 1343.33C1119.87 1372.65 1131.77 1401.96 1146.21 1429.58L1149.18 1435.1L1150.88 1438.07L1151.73 1439.35L1152.16 1440.2C1154.71 1441.9 1155.56 1448.27 1153.86 1451.24ZM1134.31 1441.05C1132.19 1443.59 1132.62 1449.12 1134.31 1451.24L1133.89 1450.39L1133.04 1448.69L1131.34 1445.72C1113.92 1415.13 1101.6 1382.42 1090.56 1349.28C1061.67 1262.61 1052.32 1170 1011.54 1087.58C1001.34 1066.76 991.145 1045.52 975.851 1028.1C966.929 1020.03 957.158 1013.24 946.962 1006.86C901.08 978.824 849.674 959.706 799.119 941.438C794.87 939.739 784.25 936.34 780.001 935.065C776.602 934.216 775.328 933.791 774.478 929.543C773.629 926.144 772.779 921.895 768.955 923.595C766.831 924.444 763.008 929.543 760.459 929.118C751.962 926.993 729.446 921.046 720.949 918.922C688.236 910.425 655.949 899.804 622.812 893.431C520.851 884.51 418.89 902.353 321.602 932.516C288.04 943.987 251.08 954.608 226.864 982.222C184.805 1034.48 177.583 1122.42 164.413 1187.42C146.145 1277.91 118.531 1365.85 81.5698 1451.24L69.6743 1432.55C377.256 1433.82 822.485 1437.65 1134.31 1441.05Z" fill="black"/>
<path d="M461.373 933.366C448.203 934.641 434.183 937.615 422.288 944.412C421.013 945.262 419.314 943.137 420.588 942.288C431.634 932.516 445.654 926.994 459.248 922.745C462.222 921.896 465.196 923.595 465.621 926.569C466.896 929.967 464.771 933.366 461.373 933.366Z" fill="black"/>
<path d="M495.361 987.746C480.067 991.145 465.197 998.367 452.877 1008.56C443.106 1010.26 467.746 990.295 469.446 989.446C476.668 984.348 483.89 980.524 492.387 977.125C494.936 976.276 498.335 977.55 499.184 980.099C500.884 983.923 498.759 987.321 495.361 987.746Z" fill="black"/>
<path d="M550.162 1042.12C537.842 1051.9 527.221 1065.07 520.423 1079.51C519.998 1080.36 518.724 1080.78 517.874 1080.36C517.025 1079.93 516.6 1079.09 517.025 1078.24C519.574 1070.16 522.972 1062.09 527.645 1054.87C532.319 1047.22 537.417 1040.42 543.364 1034.05C545.489 1031.93 548.887 1031.93 551.011 1034.05C553.136 1036.18 553.136 1040.42 550.162 1042.12Z" fill="black"/>
<path d="M641.928 1084.18C634.706 1099.48 629.183 1116.05 628.333 1133.04C628.333 1136.01 623.235 1136.01 623.235 1133.04C622.386 1119.44 624.51 1105.85 628.333 1093.1C630.457 1088.01 630.882 1074.41 639.379 1076.96C641.928 1077.81 643.203 1081.21 641.928 1084.18Z" fill="black"/>
<path d="M739.214 1085.88C741.763 1091.83 761.306 1139.41 751.959 1139.84C750.685 1139.84 749.41 1138.99 749.41 1137.71C748.985 1133.46 747.711 1129.64 746.011 1125.39C741.763 1113.5 735.815 1101.6 729.443 1090.56C726.469 1084.18 736.24 1079.09 739.214 1085.88Z" fill="black"/>
<path d="M779.575 991.994C795.294 994.967 808.464 1004.31 818.235 1016.21C818.66 1016.63 818.66 1017.91 818.235 1018.33C817.811 1018.76 816.961 1018.76 816.111 1018.33C805.915 1009.41 792.32 1003.04 778.726 1002.61C770.654 1002.19 771.928 990.719 779.575 991.994Z" fill="black"/>
<path d="M764.28 942.289C777.45 945.687 789.77 951.21 799.541 960.557C800.391 961.406 800.391 962.681 799.541 963.53C798.692 964.38 797.842 964.38 796.992 963.955C786.796 957.158 774.476 953.759 762.581 952.909C754.934 952.06 756.633 940.589 764.28 942.289Z" fill="black"/>
<path d="M779.575 1051.9C791.471 1061.67 803.366 1071.86 811.013 1085.46C811.438 1085.88 811.013 1086.73 810.588 1087.16C810.163 1087.58 809.314 1087.16 808.889 1086.73C799.542 1075.26 786.797 1067.61 774.052 1060.39C767.255 1056.99 773.203 1047.22 779.575 1051.9Z" fill="black"/>
<path d="M777.449 1043.4C768.527 1087.16 710.749 1113.5 613.462 1073.99C512.351 1033.2 468.593 935.915 457.547 907.026C517.449 794.869 475.815 717.124 475.815 717.124C613.887 705.229 734.54 866.667 734.54 866.667L753.233 946.536C754.933 953.334 758.331 959.281 763.429 963.53C772.351 979.249 782.972 1015.36 777.449 1043.4Z" fill="white"/>
<path d="M455.424 908.301C463.496 895.981 468.594 881.536 471.993 867.517C478.366 838.203 480.49 808.464 480.915 778.726V767.68C479.64 756.634 475.817 745.164 471.568 734.968C466.045 721.373 486.013 712.876 492.385 726.471C493.235 728.17 493.235 731.144 493.235 732.843C494.509 790.621 497.058 864.967 460.523 912.974C457.973 915.523 452.875 911.7 455.424 908.301Z" fill="black"/>
<path d="M739.214 865.818C745.586 869.641 747.711 874.739 748.56 879.837C751.109 890.033 750.26 901.079 752.809 911.7C754.933 921.896 761.305 931.667 763.005 942.288C765.129 953.334 771.501 976.7 774.05 988.171C774.9 990.72 773.201 993.693 770.227 994.118C768.528 994.543 767.253 994.118 765.979 993.269C760.456 988.595 757.907 983.922 754.508 977.974C748.985 967.778 745.162 958.432 741.763 946.961C738.789 936.765 740.064 925.72 737.515 915.099C735.39 904.903 729.443 895.131 727.319 884.51C726.044 879.412 725.619 873.889 729.443 867.517C731.992 864.968 736.24 864.118 739.214 865.818Z" fill="black"/>
<path d="M769.803 977.974C688.66 973.726 622.385 948.236 557.81 833.105C612.189 881.111 676.339 899.379 743.888 907.876L752.81 946.961C754.509 953.758 764.705 973.726 769.803 977.974Z" fill="black"/>
<path d="M766.407 962.255C780.851 989.445 789.348 1023.43 780.426 1053.6C773.629 1074.84 754.086 1090.56 732.844 1096.5C683.563 1109.67 626.635 1088.86 582.877 1065.49C528.923 1035.33 488.988 984.772 463.498 929.543C461.799 925.294 467.746 921.896 470.295 926.144C479.217 943.987 489.413 961.406 500.884 977.125C512.354 993.268 525.524 1008.14 540.393 1021.31C583.727 1060.39 642.354 1084.61 700.982 1084.61C761.309 1082.91 784.25 1051.05 770.23 992.419C768.106 983.072 764.707 973.301 760.034 965.229C757.485 961.83 763.858 958.007 766.407 962.255Z" fill="black"/>
<path d="M930.818 452.026C938.465 487.713 942.288 516.602 921.471 611.765C901.079 706.503 940.589 802.092 840.327 889.183C772.778 947.811 654.674 958.856 560.36 894.706C528.497 873.039 520.001 771.928 494.935 733.268C484.314 717.124 477.942 743.039 453.726 716.275C420.164 679.739 379.805 606.242 399.772 476.242C432.059 265.523 599.02 240.883 722.648 264.249C846.7 287.615 910.425 358.137 930.818 452.026Z" fill="white"/>
<path d="M474.542 753.66C464.771 737.517 452.451 723.497 440.98 708.628C423.986 685.687 411.241 659.347 402.745 632.157C366.209 515.752 385.751 364.085 493.66 291.438C593.496 223.889 784.248 244.281 871.764 325.85C915.522 365.36 939.738 422.713 944.836 480.49C947.385 519.151 938.039 556.536 929.967 593.922C920.62 630.458 918.496 666.994 918.496 704.804C918.071 742.615 916.372 782.124 901.928 817.811C879.836 872.19 833.529 916.373 777.875 935.066C704.804 960.556 618.562 946.111 558.66 897.255C556.111 895.131 558.66 891.732 561.634 893.007C640.228 937.615 743.464 945.262 819.934 893.856C865.392 863.268 896.83 814.837 904.052 760.458C910 723.497 908.3 686.111 911.699 648.726C912.973 632.157 917.647 609.216 921.045 592.647C926.143 565.033 929.542 537.419 929.117 509.804C928.692 482.615 922.745 455.85 914.673 429.935C886.634 337.745 806.339 283.366 713.725 268.497C575.228 244.281 454.15 295.687 418.039 439.706C402.32 510.229 390 587.974 419.738 656.373C430.359 682.288 447.777 704.379 467.745 723.497L487.287 744.314C495.784 752.811 481.339 763.856 474.542 753.66Z" fill="black"/>
<path d="M524.671 618.562C524.671 618.562 511.501 554.836 449.475 562.483C395.945 569.281 377.252 697.582 498.756 733.268" fill="white"/>
<path d="M493.234 677.614C483.462 672.091 476.665 662.745 476.24 651.274C476.665 642.778 477.94 633.006 475.815 624.51C474.541 616.438 466.044 614.313 459.672 614.738C452.874 616.013 448.626 624.51 447.351 631.307C447.351 631.732 446.926 633.006 446.926 633.431C446.502 635.555 443.103 635.555 442.253 633.431C436.73 616.863 449.051 598.595 466.894 600.719C491.959 602.418 495.358 628.758 490.685 648.725C488.136 657.222 491.534 664.869 496.208 672.091L497.057 673.366C499.181 675.915 495.783 679.313 493.234 677.614Z" fill="black"/>
<path d="M833.103 573.529C839.475 603.693 851.371 631.732 866.24 658.072C879.41 690.359 845.423 720.948 815.26 719.673C811.861 719.673 811.436 715 814.41 714.15C833.528 708.203 850.946 695.458 853.92 675.915C855.194 669.967 853.495 664.869 850.521 659.771C836.501 633.431 828.005 603.268 830.129 573.529C830.129 571.405 833.103 571.405 833.103 573.529Z" fill="black"/>
<path d="M522.549 618.987C512.777 593.922 491.536 570.131 463.072 570.556C460.523 570.131 456.274 570.981 453.725 570.981C446.503 571.405 440.555 573.955 435.032 579.053C407.843 606.242 412.516 654.249 434.608 684.412C442.255 695.033 452.026 704.379 463.072 712.026C474.117 719.674 486.438 725.621 499.608 730.719C502.581 731.569 501.307 736.242 498.333 735.817C469.869 729.87 442.679 715.85 423.987 692.484C395.098 657.647 389.15 599.445 423.562 565.458C431.209 558.66 441.83 553.562 452.451 553.562C455.849 553.562 460.947 552.713 464.346 553.562C482.189 554.412 499.183 563.334 510.228 577.353C520 589.249 525.523 603.693 527.222 618.138C527.222 620.687 523.398 621.536 522.549 618.987Z" fill="black"/>
<path d="M804.639 760.033C797.416 765.131 786.796 760.883 779.149 764.281C773.626 765.981 764.704 773.628 751.959 772.778C741.763 771.928 736.665 766.83 728.168 763.007C719.247 760.033 709.9 754.51 703.952 747.288C702.678 746.013 702.678 744.314 703.952 743.039C705.652 741.34 707.351 742.615 709.05 743.464C712.874 745.588 715.848 747.288 718.822 748.137C721.796 748.987 724.769 748.137 729.443 748.137C734.116 747.713 740.913 749.837 745.162 753.236C748.135 755.36 751.534 756.634 754.083 757.059C760.881 758.334 769.377 752.811 776.6 751.961C781.698 751.111 787.22 751.536 791.469 752.811C795.717 754.085 798.691 754.935 802.09 754.085C805.913 753.236 808.037 758.334 804.639 760.033Z" fill="black"/>
<path d="M737.09 528.497C746.436 529.772 753.658 520 750.26 510.654C748.56 505.556 745.586 500.883 740.913 497.909C726.469 488.987 672.514 488.138 644.05 508.53C618.56 527.223 694.606 522.549 737.09 528.497Z" fill="black"/>
<path d="M854.769 533.17C847.122 533.17 842.449 523.399 846.273 515.327C848.397 511.079 851.371 507.255 855.619 505.131C868.789 498.759 904.05 502.582 919.769 524.249C933.789 543.366 890.031 532.746 854.769 533.17Z" fill="black"/>
<path d="M723.072 584.575C708.203 597.745 685.261 597.745 667.418 590.948C664.444 589.673 647.451 582.026 650.85 577.778C651.274 577.353 652.124 576.928 652.549 576.928C664.444 577.353 675.49 578.628 686.961 579.477C698.431 580.327 708.627 579.902 720.523 579.477C723.497 579.477 725.196 582.876 723.072 584.575Z" fill="black"/>
<path d="M890.88 591.798C877.286 607.517 849.671 605.393 836.926 590.098C835.652 588.824 836.926 586.275 838.626 586.7C843.299 587.125 847.547 587.974 851.795 588.399C864.541 590.523 875.162 590.098 888.756 589.674C890.88 588.824 891.73 590.948 890.88 591.798Z" fill="black"/>
<path d="M985.621 480.49C973.725 517.451 945.261 548.464 926.993 569.281C931.242 549.314 927.418 537.418 928.268 523.399C929.542 504.281 936.34 483.039 935.065 474.542C934.216 466.895 932.516 459.673 930.817 452.026C928.693 442.68 926.144 433.758 923.17 424.837C856.471 489.837 742.189 425.686 742.189 425.686C742.189 425.686 717.974 445.654 675.49 440.98C630.033 436.307 617.712 408.268 617.712 408.268C605.392 494.085 524.248 461.373 539.118 546.765C543.366 570.131 543.366 592.647 523.399 616.013C520 604.118 503.431 555.686 449.052 562.484C397.647 568.856 378.104 687.81 484.314 728.595C483.039 768.105 487.287 821.634 483.039 807.614C453.301 715.85 393.823 730.294 365.784 661.046C352.614 627.909 354.738 598.595 361.536 576.928C368.333 556.111 367.908 533.595 361.111 512.778C353.464 488.562 347.516 452.026 361.536 407.843C385.327 332.222 436.307 314.804 449.477 305.882C462.647 296.961 456.274 215.392 548.464 189.902C621.961 169.51 677.189 212.418 693.333 209.444C709.477 206.471 822.484 132.124 909.575 202.222C993.693 270.196 962.255 350.49 962.255 350.49C962.255 350.49 1014.51 390.85 985.621 480.49Z" fill="black"/>
<path d="M477.092 627.732C477.092 627.732 443.105 622.634 445.654 670.216C446.928 694.431 446.928 707.601 446.503 714.399C446.078 719.072 449.052 723.32 453.301 725.02C458.399 727.144 463.922 725.02 466.471 719.922C470.294 713.124 474.543 703.778 474.543 696.131C474.543 683.386 488.137 671.915 488.137 671.915C488.137 671.915 475.817 661.294 477.092 627.732Z" fill="#81BDD6"/>
<path d="M475.817 629.007C475.817 629.431 476.242 629.856 476.667 629.856C476.667 629.856 476.667 629.856 476.242 629.856H475.392C455 631.556 448.627 649.399 449.477 667.667C449.902 679.562 450.752 691.457 450.327 702.928C451.176 709.301 447.353 717.797 453.725 721.196C457.549 723.32 462.647 721.621 464.346 717.373C468.17 709.725 471.993 702.078 471.993 693.582C473.693 683.81 480.065 676.163 486.863 670.216V673.614C477.941 664.268 475.817 651.523 474.542 639.627C474.967 636.654 474.967 631.98 475.817 629.007ZM478.791 626.033C480.065 637.928 480.065 650.248 485.163 660.869C486.438 663.843 488.562 667.242 491.111 669.366C492.81 670.64 492.81 673.19 491.111 674.464C485.163 679.987 480.065 686.784 479.216 694.431C479.216 703.778 475.392 712.699 471.144 720.771C467.745 727.993 457.974 731.817 450.752 727.569C446.078 725.02 442.68 719.922 442.68 714.399C442.68 710.15 443.105 706.752 443.105 702.503C443.105 690.608 442.255 679.137 441.83 667.242C441.83 659.595 442.255 650.673 445.654 643.026C449.902 631.131 463.072 623.059 475.817 625.183C477.092 625.183 478.366 625.608 478.791 626.033Z" fill="black"/>
<path d="M471.569 1130.74C485.588 1069.56 467.32 1000.74 451.601 939.562C445.229 915.346 438.856 892.405 435.882 872.438C430.36 838.876 434.183 807.013 447.778 777.274C464.346 740.314 461.797 708.876 461.797 707.601L453.301 708.451C453.301 708.876 455.85 739.464 440.131 773.876C426.111 804.889 421.863 838.451 427.386 873.712C430.784 894.105 436.732 917.471 443.105 941.686C458.824 1001.59 476.667 1069.56 463.072 1128.61C455.425 1161.33 470.294 1214.86 491.536 1268.39C494.935 1268.81 497.909 1269.24 501.307 1269.66C479.641 1216.13 464.346 1162.18 471.569 1130.74Z" fill="black"/>
<path d="M446.928 694.856C447.353 704.203 446.928 710.575 446.928 714.399C446.503 719.072 449.477 723.32 453.725 725.02C458.823 727.144 464.346 725.02 466.895 719.922C470.719 713.124 474.967 703.778 474.967 696.131C474.967 695.706 474.967 694.856 474.967 694.431C466.471 697.83 456.274 700.379 446.928 694.856Z" fill="#81BDD6"/>
<path d="M448.203 696.556C448.627 702.503 449.052 708.026 449.052 713.974C448.627 716.523 449.477 719.072 451.176 721.196C456.699 726.719 464.346 723.32 466.471 716.523C469.869 709.725 472.843 702.503 472.843 694.856L475.817 696.98C466.471 698.68 456.699 701.229 447.778 697.405C447.778 697.405 448.203 696.98 448.203 696.556ZM446.078 692.732C446.928 692.732 448.627 693.157 449.477 694.007C457.124 699.529 466.895 696.98 474.542 692.732C475.817 691.882 477.941 693.157 477.516 694.856C477.091 704.627 473.268 713.974 468.17 722.471C463.497 728.843 453.725 729.268 448.203 723.745C445.654 721.196 444.379 716.948 444.804 713.549C444.804 706.327 445.654 699.529 446.078 692.732Z" fill="black"/>
<path d="M847.124 977.372C854.346 927.242 847.549 891.555 845 880.935C843.726 881.784 842.876 883.059 841.601 883.908C840.327 885.183 839.052 886.033 837.778 887.307C840.327 900.902 845 933.189 838.627 976.098C835.654 996.065 834.804 1027.5 834.379 1064.04C833.529 1099.3 822.484 1187.24 809.314 1270.51C812.288 1269.66 815.261 1268.81 818.235 1268.39C831.405 1185.97 842.026 1099.73 842.876 1064.46C843.726 1027.93 844.15 996.915 847.124 977.372Z" fill="black"/>
<path d="M1224.38 358.137C1482.25 854.771 1028.95 1415.13 488.562 1278.33C245.98 1218.01 50.9804 1007.71 10.621 760.882C-35.2614 515.327 75.621 251.503 282.941 112.582C567.157 -82.8431 960.98 -17.8432 1164.48 261.699C1165.75 262.974 1165.33 265.098 1163.63 266.373C1162.35 267.647 1160.23 267.222 1158.95 265.523C1130.92 229.412 1099.05 196.699 1064.22 167.386C1006.86 118.529 939.739 80.2941 868.791 54.3791C507.68 -76.4706 111.307 141.046 32.2876 518.725C-56.9281 941.863 302.909 1331.44 731.993 1273.24C1062.94 1231.6 1308.92 926.144 1281.73 593.922C1275.78 513.627 1254.54 434.183 1219.28 361.111C1218.43 359.837 1219.28 358.137 1220.56 357.288C1221.83 356.438 1223.53 356.863 1224.38 358.137Z" fill="black"/>
<path style="mix-blend-mode:screen" d="M1093.38 332.089L1133.14 352.04L1140.44 335.09L1103.04 314.528C1103.04 314.528 1095.11 326.856 1093.38 332.089Z" fill="url(#paint0_linear_1_1079)"/>
<path fill-rule="evenodd" clip-rule="evenodd" d="M1086.71 297.275L1089.13 289.829C1089.13 289.829 1102.18 295.453 1111.72 311.105L1111.38 311.746L1092.98 301.18L1092.21 302.512L1086.71 297.275Z" fill="url(#paint1_linear_1_1079)"/>
<path fill-rule="evenodd" clip-rule="evenodd" d="M1070.07 328.26L1065.05 334.541C1065.05 334.541 1076.93 342.338 1095.25 341.688L1095.6 341.046L1076.66 331.528L1077.34 330.147L1070.07 328.26Z" fill="url(#paint2_linear_1_1079)"/>
<path fill-rule="evenodd" clip-rule="evenodd" d="M1005.95 273.8C1001.22 282.58 1014.73 307.586 1034.79 316.956C1054.86 326.326 1088.31 332.647 1088.31 332.647L1094.47 321.459L1100.42 310.154C1100.42 310.154 1076.71 285.707 1057.86 274.117C1039 262.528 1010.64 265.08 1005.95 273.8Z" fill="url(#paint3_radial_1_1079)"/>
<path fill-rule="evenodd" clip-rule="evenodd" d="M1088.31 332.653C1088.31 332.653 1094.07 319.244 1100.42 310.16C1100.42 310.16 1094.89 323.386 1088.31 332.653Z" fill="#63A0C2"/>
<path fill-rule="evenodd" clip-rule="evenodd" d="M1008.4 290.337C1008.4 290.337 1011.2 275.806 1022.48 266.613C1022.48 266.613 1009.43 267.461 1005.94 273.8C1002.81 279.503 1008.4 290.337 1008.4 290.337Z" fill="url(#paint4_radial_1_1079)"/>
<path d="M1022.59 266.752C1011.99 275.219 1008.62 290.209 1008.58 290.372L1008.23 290.299C1008.26 290.148 1011.67 275.02 1022.38 266.474L1022.59 266.752Z" fill="#63A0C2"/>
<path fill-rule="evenodd" clip-rule="evenodd" d="M1005.04 277.125L1008.91 270.726C1008.91 270.726 1004.76 272.792 1005.04 277.125Z" fill="#63A0C2"/>
<path fill-rule="evenodd" clip-rule="evenodd" d="M1005.22 276.043C1005.69 274.714 1006.32 273.453 1007.12 272.292C1007.12 272.292 1003.64 271.351 1002.92 272.421C1002.21 273.49 1005.22 276.043 1005.22 276.043Z" fill="url(#paint5_linear_1_1079)"/>
<path style="mix-blend-mode:multiply" opacity="0.5" fill-rule="evenodd" clip-rule="evenodd" d="M1066.62 327.683C1066.62 327.683 1070.68 305.396 1082.74 293.354C1089.86 299.601 1100.42 310.162 1100.42 310.162C1100.42 310.162 1094.6 318.115 1088.31 332.655C1088.31 332.653 1077.05 331.093 1066.62 327.683Z" fill="url(#paint6_radial_1_1079)"/>
<path style="mix-blend-mode:multiply" opacity="0.5" fill-rule="evenodd" clip-rule="evenodd" d="M1019.62 282.108C1015.97 290.349 1022.26 301.026 1030.2 305.771C1038.15 310.516 1047.18 305.667 1051.28 297.514C1055.38 289.362 1053.5 279.759 1044.09 275.892C1035.58 272.383 1023.67 272.949 1019.62 282.108Z" fill="url(#paint7_radial_1_1079)"/>
<path fill-rule="evenodd" clip-rule="evenodd" d="M1018.32 281.41C1014.67 289.651 1020.96 300.328 1028.91 305.072C1036.85 309.817 1045.88 304.969 1049.98 296.818C1054.08 288.666 1052.21 279.062 1042.79 275.193C1034.29 271.687 1022.38 272.253 1018.32 281.41Z" fill="#63A0C2"/>
<path fill-rule="evenodd" clip-rule="evenodd" d="M1017.42 280.923C1013.77 289.164 1020.06 299.841 1028 304.586C1035.95 309.331 1044.98 304.482 1049.08 296.331C1053.18 288.18 1051.3 278.575 1041.88 274.706C1033.38 271.2 1021.47 271.766 1017.42 280.923Z" fill="url(#paint8_radial_1_1079)"/>
<path fill-rule="evenodd" clip-rule="evenodd" d="M1020.6 281.962C1017.21 289.291 1022.63 296.8 1028.84 300.513C1035.05 304.226 1042.11 300.393 1045.33 293.989C1048.55 287.584 1047.11 280.065 1039.76 277.039C1033.09 274.293 1024.13 274.299 1020.6 281.962Z" fill="#A6345F"/>
<path fill-rule="evenodd" clip-rule="evenodd" d="M1046.61 286.107C1046.94 288.799 1046.44 291.527 1045.18 293.93C1042.11 300.024 1034.72 304.006 1028.81 300.478C1026.79 299.273 1025.02 297.698 1023.58 295.836C1020.75 292.162 1019.48 287.396 1021.65 282.487C1024.84 275.22 1033.55 275.194 1039.88 277.798C1043.94 279.491 1046.1 282.612 1046.61 286.107Z" fill="url(#paint9_linear_1_1079)"/>
<path d="M1050 296.799L1049.91 296.958L1072.52 309.132L1072.61 308.974L1050 296.799Z" fill="#63A0C2"/>
<path d="M1066.69 327.694L1066.52 327.658C1071.99 302.601 1082.56 293.379 1082.67 293.289L1082.78 293.425C1082.69 293.522 1072.16 302.712 1066.69 327.694Z" fill="#63A0C2"/>
<path d="M1058.25 325.345L1058.07 325.362C1058.06 325.273 1057.37 316.238 1063.14 303.987L1063.3 304.071C1057.53 316.269 1058.24 325.257 1058.25 325.345Z" fill="#63A0C2"/>
<path fill-rule="evenodd" clip-rule="evenodd" d="M1090.24 315.193L1080.31 310.256L1081.09 307.194L1091.38 313.077L1090.24 315.193Z" fill="#63A0C2"/>
<path fill-rule="evenodd" clip-rule="evenodd" d="M1089.51 330.9C1089.51 330.9 1093.84 320.631 1099.84 311.51L1103.89 314.455L1093.6 332.422L1089.51 330.9Z" fill="url(#paint10_radial_1_1079)"/>
<path opacity="0.5" fill-rule="evenodd" clip-rule="evenodd" d="M1091.58 331.663C1091.72 328.647 1092.56 325.705 1094.04 323.072C1096.49 318.735 1102.96 313.766 1102.96 313.766L1099.84 311.51C1099.84 311.51 1093.21 321.404 1089.51 330.9L1091.58 331.663Z" fill="#63A0C2"/>
<path d="M1026.67 279.591C1028.62 278.992 1030.66 278.717 1032.7 278.777L1032.65 276.781C1032.65 276.781 1029.23 276.449 1027.07 278.107L1026.67 279.591Z" fill="white"/>
<path d="M1031.99 299.353L1034.86 299.275L1034.92 300.931L1032.59 300.851L1031.99 299.353Z" fill="white"/>
<path style="mix-blend-mode:multiply" opacity="0.5" fill-rule="evenodd" clip-rule="evenodd" d="M1010.98 295.007C1010.98 295.007 1011.33 279.158 1026.38 266.354L1022.48 266.613C1022.48 266.613 1013.11 273.632 1008.4 290.337L1010.98 295.007Z" fill="url(#paint11_radial_1_1079)"/>
<path fill-rule="evenodd" clip-rule="evenodd" d="M1064.38 305.392C1064.47 305.442 1064.55 305.509 1064.62 305.59C1064.68 305.672 1064.73 305.765 1064.76 305.865C1064.79 305.965 1064.8 306.07 1064.79 306.174C1064.78 306.278 1064.75 306.378 1064.69 306.47C1064.6 306.656 1064.43 306.794 1064.23 306.856C1064.02 306.918 1063.81 306.897 1063.62 306.799C1063.44 306.698 1063.3 306.527 1063.24 306.325C1063.18 306.123 1063.2 305.906 1063.3 305.721C1063.35 305.629 1063.42 305.547 1063.5 305.481C1063.58 305.414 1063.67 305.364 1063.77 305.333C1063.87 305.303 1063.98 305.292 1064.08 305.302C1064.19 305.312 1064.29 305.343 1064.38 305.392Z" fill="url(#paint12_linear_1_1079)"/>
<path fill-rule="evenodd" clip-rule="evenodd" d="M1064.3 305.533C1064.45 305.617 1064.55 305.753 1064.6 305.914C1064.64 306.074 1064.62 306.246 1064.55 306.393C1064.47 306.54 1064.33 306.651 1064.17 306.701C1064.01 306.752 1063.84 306.738 1063.69 306.663C1063.55 306.58 1063.44 306.443 1063.4 306.283C1063.35 306.122 1063.37 305.95 1063.45 305.803C1063.53 305.656 1063.66 305.546 1063.82 305.495C1063.98 305.445 1064.15 305.458 1064.3 305.533Z" fill="url(#paint13_radial_1_1079)"/>
<path fill-rule="evenodd" clip-rule="evenodd" d="M1060.94 303.543C1061.13 303.646 1061.26 303.817 1061.32 304.018C1061.38 304.22 1061.35 304.437 1061.25 304.621C1061.15 304.807 1060.98 304.945 1060.78 305.007C1060.58 305.068 1060.36 305.047 1060.18 304.949C1060 304.846 1059.86 304.676 1059.8 304.475C1059.75 304.274 1059.77 304.059 1059.87 303.876C1059.92 303.783 1059.98 303.701 1060.06 303.634C1060.14 303.567 1060.24 303.516 1060.34 303.485C1060.44 303.455 1060.54 303.444 1060.65 303.454C1060.75 303.464 1060.85 303.494 1060.94 303.543Z" fill="url(#paint14_linear_1_1079)"/>
<path fill-rule="evenodd" clip-rule="evenodd" d="M1060.87 303.685C1061.01 303.768 1061.12 303.905 1061.17 304.065C1061.21 304.226 1061.19 304.398 1061.11 304.545C1061.03 304.692 1060.9 304.802 1060.74 304.853C1060.58 304.903 1060.41 304.89 1060.26 304.815C1060.19 304.775 1060.12 304.721 1060.07 304.656C1060.02 304.591 1059.98 304.516 1059.96 304.436C1059.94 304.356 1059.93 304.273 1059.94 304.19C1059.95 304.108 1059.98 304.028 1060.02 303.956C1060.06 303.882 1060.11 303.816 1060.17 303.761C1060.23 303.707 1060.31 303.666 1060.39 303.641C1060.47 303.616 1060.55 303.607 1060.63 303.614C1060.72 303.622 1060.8 303.645 1060.87 303.685Z" fill="url(#paint15_radial_1_1079)"/>
<path d="M1031.63 303.617C1031.84 303.228 1031.7 302.746 1031.32 302.539C1030.93 302.332 1030.45 302.48 1030.24 302.869C1030.03 303.257 1030.18 303.74 1030.56 303.946C1030.94 304.153 1031.42 304.006 1031.63 303.617Z" fill="#63A0C2"/>
<path fill-rule="evenodd" clip-rule="evenodd" d="M1031.24 302.676C1031.38 302.76 1031.49 302.896 1031.54 303.057C1031.58 303.217 1031.56 303.389 1031.48 303.536C1031.4 303.683 1031.27 303.794 1031.11 303.844C1030.95 303.895 1030.78 303.881 1030.63 303.806C1030.49 303.723 1030.38 303.586 1030.34 303.426C1030.29 303.266 1030.31 303.094 1030.39 302.948C1030.43 302.873 1030.48 302.807 1030.54 302.753C1030.6 302.699 1030.68 302.658 1030.76 302.633C1030.84 302.607 1030.92 302.598 1031 302.606C1031.09 302.613 1031.17 302.637 1031.24 302.676Z" fill="url(#paint16_radial_1_1079)"/>
<path fill-rule="evenodd" clip-rule="evenodd" d="M1022.13 296.002C1022.32 296.103 1022.46 296.274 1022.51 296.476C1022.57 296.678 1022.55 296.895 1022.45 297.08C1022.4 297.172 1022.33 297.254 1022.25 297.321C1022.17 297.388 1022.08 297.438 1021.98 297.469C1021.88 297.5 1021.78 297.511 1021.67 297.501C1021.57 297.491 1021.47 297.461 1021.37 297.412C1021.28 297.362 1021.2 297.294 1021.14 297.213C1021.07 297.131 1021.02 297.037 1020.99 296.937C1020.96 296.837 1020.96 296.732 1020.97 296.628C1020.98 296.524 1021.01 296.423 1021.06 296.332C1021.16 296.146 1021.33 296.007 1021.53 295.945C1021.73 295.883 1021.95 295.904 1022.13 296.002Z" fill="#63A0C2"/>
<path fill-rule="evenodd" clip-rule="evenodd" d="M1022.05 296.152C1022.2 296.236 1022.3 296.372 1022.35 296.533C1022.4 296.693 1022.38 296.865 1022.3 297.012C1022.22 297.159 1022.08 297.27 1021.93 297.32C1021.77 297.371 1021.59 297.357 1021.44 297.282C1021.3 297.199 1021.19 297.062 1021.15 296.902C1021.1 296.741 1021.12 296.569 1021.2 296.422C1021.28 296.275 1021.41 296.165 1021.57 296.114C1021.73 296.064 1021.9 296.077 1022.05 296.152Z" fill="url(#paint17_radial_1_1079)"/>
<path fill-rule="evenodd" clip-rule="evenodd" d="M1042.64 300.138C1042.73 300.188 1042.81 300.255 1042.88 300.336C1042.94 300.417 1042.99 300.511 1043.02 300.611C1043.05 300.711 1043.06 300.816 1043.05 300.92C1043.04 301.024 1043 301.124 1042.95 301.216C1042.85 301.401 1042.69 301.54 1042.48 301.602C1042.28 301.664 1042.07 301.643 1041.88 301.545C1041.7 301.444 1041.56 301.273 1041.5 301.071C1041.44 300.869 1041.46 300.652 1041.56 300.467C1041.61 300.375 1041.68 300.293 1041.76 300.227C1041.84 300.16 1041.93 300.11 1042.03 300.079C1042.13 300.049 1042.24 300.038 1042.34 300.048C1042.44 300.058 1042.55 300.089 1042.64 300.138Z" fill="#63A0C2"/>
<path fill-rule="evenodd" clip-rule="evenodd" d="M1042.56 300.287C1042.7 300.371 1042.81 300.507 1042.85 300.668C1042.9 300.829 1042.88 301.001 1042.8 301.148C1042.72 301.295 1042.59 301.405 1042.43 301.456C1042.27 301.506 1042.1 301.492 1041.95 301.418C1041.8 301.334 1041.7 301.198 1041.65 301.037C1041.61 300.876 1041.62 300.704 1041.7 300.557C1041.78 300.41 1041.92 300.3 1042.08 300.25C1042.23 300.199 1042.41 300.213 1042.56 300.287Z" fill="url(#paint18_radial_1_1079)"/>
<path fill-rule="evenodd" clip-rule="evenodd" d="M1049.34 289.686C1049.44 289.736 1049.52 289.803 1049.58 289.885C1049.65 289.966 1049.7 290.059 1049.73 290.16C1049.76 290.26 1049.77 290.365 1049.75 290.469C1049.74 290.573 1049.71 290.674 1049.66 290.765C1049.56 290.951 1049.39 291.09 1049.19 291.151C1048.99 291.213 1048.77 291.192 1048.59 291.093C1048.4 290.992 1048.26 290.822 1048.2 290.62C1048.15 290.418 1048.17 290.2 1048.27 290.015C1048.32 289.923 1048.38 289.841 1048.47 289.775C1048.55 289.708 1048.64 289.658 1048.74 289.628C1048.84 289.597 1048.94 289.586 1049.05 289.596C1049.15 289.606 1049.25 289.637 1049.34 289.686Z" fill="#63A0C2"/>
<path fill-rule="evenodd" clip-rule="evenodd" d="M1049.26 289.836C1049.41 289.919 1049.51 290.056 1049.56 290.216C1049.6 290.377 1049.59 290.549 1049.51 290.696C1049.43 290.843 1049.29 290.954 1049.13 291.004C1048.98 291.054 1048.8 291.041 1048.65 290.966C1048.58 290.926 1048.52 290.872 1048.46 290.807C1048.41 290.742 1048.37 290.668 1048.35 290.588C1048.33 290.508 1048.32 290.424 1048.33 290.341C1048.34 290.259 1048.37 290.179 1048.41 290.107C1048.45 290.033 1048.5 289.967 1048.56 289.913C1048.63 289.859 1048.7 289.818 1048.78 289.792C1048.86 289.767 1048.94 289.758 1049.03 289.765C1049.11 289.773 1049.19 289.797 1049.26 289.836Z" fill="url(#paint19_radial_1_1079)"/>
<path d="M1047.14 279.888C1047.35 279.5 1047.21 279.017 1046.83 278.81C1046.44 278.604 1045.96 278.751 1045.75 279.14C1045.54 279.528 1045.68 280.011 1046.07 280.218C1046.45 280.424 1046.93 280.277 1047.14 279.888Z" fill="#63A0C2"/>
<path fill-rule="evenodd" clip-rule="evenodd" d="M1046.75 278.952C1046.89 279.035 1047 279.172 1047.05 279.332C1047.09 279.493 1047.07 279.665 1046.99 279.812C1046.91 279.959 1046.78 280.069 1046.62 280.12C1046.46 280.17 1046.29 280.157 1046.14 280.082C1046 279.998 1045.89 279.862 1045.84 279.701C1045.8 279.541 1045.82 279.369 1045.9 279.222C1045.98 279.075 1046.11 278.964 1046.27 278.914C1046.43 278.863 1046.6 278.877 1046.75 278.952Z" fill="url(#paint20_radial_1_1079)"/>
<path fill-rule="evenodd" clip-rule="evenodd" d="M1033.89 273.303C1033.98 273.353 1034.06 273.42 1034.13 273.501C1034.19 273.583 1034.24 273.676 1034.27 273.776C1034.3 273.876 1034.31 273.981 1034.3 274.085C1034.29 274.189 1034.26 274.289 1034.21 274.381C1034.11 274.567 1033.94 274.706 1033.74 274.767C1033.53 274.829 1033.32 274.808 1033.13 274.71C1032.95 274.609 1032.81 274.439 1032.75 274.238C1032.69 274.037 1032.71 273.82 1032.81 273.635C1032.86 273.542 1032.93 273.46 1033.01 273.393C1033.09 273.326 1033.18 273.276 1033.28 273.245C1033.38 273.214 1033.49 273.203 1033.59 273.213C1033.7 273.223 1033.8 273.254 1033.89 273.303Z" fill="#63A0C2"/>
<path fill-rule="evenodd" clip-rule="evenodd" d="M1033.81 273.444C1033.96 273.528 1034.06 273.664 1034.11 273.825C1034.15 273.985 1034.14 274.157 1034.06 274.304C1033.98 274.451 1033.84 274.562 1033.69 274.612C1033.53 274.663 1033.35 274.649 1033.2 274.574C1033.06 274.491 1032.95 274.354 1032.91 274.194C1032.86 274.033 1032.88 273.861 1032.96 273.714C1033.04 273.567 1033.17 273.457 1033.33 273.406C1033.49 273.356 1033.66 273.369 1033.81 273.444Z" fill="url(#paint21_radial_1_1079)"/>
<path fill-rule="evenodd" clip-rule="evenodd" d="M1024.54 275.427C1024.64 275.477 1024.72 275.544 1024.78 275.625C1024.85 275.706 1024.9 275.8 1024.93 275.9C1024.96 276 1024.96 276.105 1024.95 276.209C1024.94 276.313 1024.91 276.413 1024.86 276.505C1024.76 276.69 1024.59 276.829 1024.39 276.891C1024.19 276.953 1023.97 276.932 1023.79 276.834C1023.6 276.733 1023.46 276.562 1023.41 276.36C1023.35 276.158 1023.37 275.941 1023.47 275.756C1023.52 275.664 1023.59 275.582 1023.67 275.516C1023.75 275.449 1023.84 275.399 1023.94 275.368C1024.04 275.338 1024.14 275.327 1024.25 275.337C1024.35 275.347 1024.45 275.378 1024.54 275.427Z" fill="#63A0C2"/>
<path fill-rule="evenodd" clip-rule="evenodd" d="M1024.46 275.576C1024.61 275.66 1024.71 275.797 1024.76 275.957C1024.81 276.118 1024.79 276.29 1024.71 276.437C1024.63 276.584 1024.5 276.694 1024.34 276.745C1024.18 276.795 1024 276.781 1023.86 276.707C1023.71 276.623 1023.6 276.487 1023.56 276.326C1023.51 276.165 1023.53 275.993 1023.61 275.846C1023.69 275.699 1023.82 275.589 1023.98 275.539C1024.14 275.488 1024.31 275.502 1024.46 275.576Z" fill="url(#paint22_radial_1_1079)"/>
<path fill-rule="evenodd" clip-rule="evenodd" d="M1018.52 284.231C1018.71 284.332 1018.84 284.502 1018.9 284.704C1018.96 284.906 1018.94 285.123 1018.84 285.308C1018.79 285.401 1018.72 285.482 1018.64 285.549C1018.56 285.616 1018.47 285.666 1018.37 285.696C1018.27 285.727 1018.16 285.737 1018.06 285.727C1017.96 285.717 1017.86 285.687 1017.76 285.638C1017.67 285.588 1017.59 285.52 1017.52 285.439C1017.46 285.358 1017.41 285.264 1017.38 285.164C1017.35 285.064 1017.34 284.959 1017.35 284.855C1017.36 284.751 1017.39 284.65 1017.44 284.558C1017.54 284.373 1017.71 284.234 1017.91 284.173C1018.12 284.111 1018.34 284.132 1018.52 284.231Z" fill="#63A0C2"/>
<path fill-rule="evenodd" clip-rule="evenodd" d="M1018.44 284.38C1018.51 284.42 1018.58 284.474 1018.63 284.539C1018.68 284.604 1018.72 284.679 1018.74 284.759C1018.77 284.839 1018.77 284.923 1018.76 285.005C1018.75 285.088 1018.72 285.167 1018.68 285.239C1018.64 285.313 1018.59 285.38 1018.53 285.434C1018.47 285.488 1018.39 285.529 1018.31 285.554C1018.24 285.579 1018.15 285.589 1018.07 285.581C1017.99 285.574 1017.91 285.55 1017.83 285.511C1017.69 285.427 1017.58 285.291 1017.54 285.13C1017.49 284.969 1017.51 284.797 1017.59 284.65C1017.67 284.503 1017.8 284.393 1017.96 284.342C1018.12 284.292 1018.29 284.306 1018.44 284.38Z" fill="url(#paint23_radial_1_1079)"/>
<path fill-rule="evenodd" clip-rule="evenodd" d="M1095.59 341.057L1095.87 340.54L1076.9 330.996L1076.64 331.521L1095.59 341.057Z" fill="#63A0C2"/>
<path fill-rule="evenodd" clip-rule="evenodd" d="M1092.99 301.17L1092.69 301.674L1111.19 312.085L1111.38 311.735L1092.99 301.17Z" fill="#63A0C2"/>
<path fill-rule="evenodd" clip-rule="evenodd" d="M1076.83 305.631L1077.83 303.777L1106.16 321.421L1105.47 322.713L1076.83 305.631Z" fill="url(#paint24_linear_1_1079)"/>
<path fill-rule="evenodd" clip-rule="evenodd" d="M1076.83 305.631L1082.63 310.417L1105.47 322.713L1076.83 305.631Z" fill="#FF4C61"/>
<path opacity="0.5" fill-rule="evenodd" clip-rule="evenodd" d="M1078.7 304.319L1100.42 310.16L1097.77 314.511L1102.39 317.074L1101.59 318.572L1078.7 304.319Z" fill="#63A0C2"/>
<path d="M1015.82 299.436C1015.82 299.436 1013.71 298.533 1013.16 296.569L1013.78 295.543C1014.62 296.622 1015.39 297.744 1016.11 298.904L1015.82 299.436Z" fill="white"/>
<g style="mix-blend-mode:soft-light">
<path d="M1077.79 290.697L1070.11 284.062L1070.4 283.523L1078.13 290.059L1077.79 290.697Z" fill="white"/>
</g>
<path fill-rule="evenodd" clip-rule="evenodd" d="M1039.96 267.436C1039.96 267.436 1041.06 263.8 1043.57 268.233L1039.96 267.436Z" fill="url(#paint25_linear_1_1079)"/>
<path fill-rule="evenodd" clip-rule="evenodd" d="M1018.99 305.341C1018.99 305.341 1018.25 308.858 1021.52 307.836L1018.99 305.341Z" fill="url(#paint26_linear_1_1079)"/>
<g style="mix-blend-mode:soft-light" opacity="0.5">
<path fill-rule="evenodd" clip-rule="evenodd" d="M1089.7 329.305C1089.7 329.305 1059.31 323.846 1038.24 316.77L1038.2 317.813C1038.2 317.813 1069.94 329.779 1088.51 332.182L1089.7 329.305Z" fill="white"/>
</g>
<g style="mix-blend-mode:soft-light">
<path fill-rule="evenodd" clip-rule="evenodd" d="M1068.29 282.699L1063.43 278.829L1063.71 278.315L1068.56 282.185L1068.29 282.699Z" fill="white"/>
</g>
<g style="mix-blend-mode:soft-light">
<path fill-rule="evenodd" clip-rule="evenodd" d="M1058.65 321.509C1058.65 321.509 1059.2 314.571 1061.56 308.96C1061.56 308.96 1059.87 314.911 1058.65 321.509Z" fill="white"/>
</g>
<g style="mix-blend-mode:soft-light">
<path fill-rule="evenodd" clip-rule="evenodd" d="M1052.2 297.75L1072.09 308.289C1072.09 308.289 1065.09 304.069 1052.2 297.75Z" fill="white"/>
</g>
<g style="mix-blend-mode:soft-light">
<path fill-rule="evenodd" clip-rule="evenodd" d="M1067.98 323.187C1067.98 323.187 1071.29 307.748 1080.67 296.287C1080.68 296.295 1073.26 304.526 1067.98 323.187Z" fill="white"/>
</g>
<path fill-rule="evenodd" clip-rule="evenodd" d="M1017.54 292.184C1017.54 292.184 1019.24 290.754 1016.46 287.881C1016.64 289.354 1017.01 290.799 1017.54 292.184Z" fill="white"/>
<g style="mix-blend-mode:soft-light">
<path fill-rule="evenodd" clip-rule="evenodd" d="M1049.84 294.684C1049.84 294.684 1051.96 290.193 1050.07 282.501C1050.05 282.494 1052.65 287.895 1049.84 294.684Z" fill="white"/>
</g>
<g style="mix-blend-mode:soft-light">
<path fill-rule="evenodd" clip-rule="evenodd" d="M1045.15 294.292C1045.15 294.292 1049.23 291.568 1046.91 286.956C1046.92 286.961 1047.62 289.95 1045.15 294.292Z" fill="white"/>
</g>
<g style="mix-blend-mode:soft-light" opacity="0.36">
<g style="mix-blend-mode:soft-light" opacity="0.36">
<path fill-rule="evenodd" clip-rule="evenodd" d="M1053.24 299.605C1053.27 299.914 1053.25 300.463 1053.63 300.574C1053.81 300.604 1053.99 300.624 1054.17 300.634C1054.33 300.665 1054.48 300.711 1054.63 300.773C1054.87 300.874 1055.14 300.904 1055.4 300.857C1055.57 300.812 1055.52 300.642 1055.44 300.515C1055.38 300.37 1055.28 300.243 1055.16 300.149C1054.98 300.05 1054.81 299.933 1054.65 299.799C1054.6 299.746 1054.56 299.658 1054.5 299.602C1054.41 299.541 1054.32 299.49 1054.22 299.45C1054.06 299.37 1053.88 299.342 1053.7 299.369C1053.53 299.397 1053.36 299.48 1053.24 299.605Z" fill="white"/>
</g>
<g style="mix-blend-mode:soft-light" opacity="0.36">
<path fill-rule="evenodd" clip-rule="evenodd" d="M1055.58 302.054C1055.53 302.049 1055.49 302.029 1055.45 301.998C1055.41 301.966 1055.39 301.925 1055.38 301.879C1055.56 301.54 1056.29 301.78 1056.24 302.165C1056.2 302.613 1055.68 302.39 1055.52 302.16L1055.58 302.054Z" fill="white"/>
</g>
<g style="mix-blend-mode:soft-light" opacity="0.36">
<path fill-rule="evenodd" clip-rule="evenodd" d="M1056.46 310.555C1056.47 310.335 1056.43 310.125 1056.58 309.955C1056.7 309.815 1056.87 309.72 1057.06 309.683C1057.28 309.648 1057.52 309.663 1057.74 309.726C1057.85 309.73 1057.96 309.766 1058.05 309.83C1058.38 310.146 1058.41 310.755 1058.33 311.17C1058.3 311.411 1058.24 311.648 1058.16 311.876C1058.08 312.026 1058.03 312.194 1057.98 312.355C1057.95 312.494 1057.9 312.626 1057.82 312.743C1057.72 312.825 1057.62 312.891 1057.51 312.939C1057.36 313.013 1057.2 313.05 1057.03 313.047C1056.87 313.044 1056.71 313.001 1056.56 312.921C1056.06 312.626 1055.99 311.786 1056 311.253C1056.02 310.821 1056.1 310.159 1056.46 310.555Z" fill="white"/>
</g>
<g style="mix-blend-mode:soft-light" opacity="0.36">
<path fill-rule="evenodd" clip-rule="evenodd" d="M1056.63 308.559C1056.75 308.685 1056.77 308.752 1056.93 308.683C1056.98 308.651 1057.02 308.609 1057.06 308.56C1057.09 308.51 1057.11 308.454 1057.12 308.396C1057.15 308.183 1057.01 307.808 1056.75 307.836C1056.63 307.855 1056.37 307.927 1056.29 308.026C1056.23 308.157 1056.23 308.303 1056.27 308.438C1056.31 308.573 1056.4 308.688 1056.52 308.764L1056.63 308.559Z" fill="white"/>
</g>
<g style="mix-blend-mode:soft-light" opacity="0.36">
<path fill-rule="evenodd" clip-rule="evenodd" d="M1065.28 304.481C1065.34 304.546 1065.42 304.598 1065.5 304.636C1065.7 304.742 1065.9 304.849 1066.1 304.957C1066.47 305.158 1066.81 305.417 1067.2 305.622C1067.47 305.762 1067.76 305.879 1068.05 305.971C1068.21 306.026 1068.36 306.073 1068.51 306.113C1068.53 306.082 1068.46 306.035 1068.43 306.004C1068.36 305.9 1068.25 305.809 1068.18 305.702C1068.03 305.458 1067.86 305.207 1067.69 304.975C1067.65 304.936 1067.61 304.894 1067.58 304.847C1067.56 304.784 1067.54 304.706 1067.52 304.642C1067.47 304.521 1067.41 304.408 1067.33 304.307C1067.13 304.088 1066.89 303.917 1066.61 303.805C1066.52 303.758 1066.43 303.739 1066.34 303.696C1066.25 303.645 1066.15 303.6 1066.05 303.561C1065.83 303.495 1065.61 303.471 1065.38 303.492C1065.12 303.502 1064.7 303.447 1064.5 303.677C1064.41 303.786 1064.52 303.908 1064.61 303.983C1064.7 304.058 1064.86 304.144 1064.98 304.234C1065.1 304.324 1065.32 304.523 1065.28 304.481Z" fill="white"/>
</g>
<g style="mix-blend-mode:soft-light" opacity="0.36">
<path fill-rule="evenodd" clip-rule="evenodd" d="M1063.66 303.259C1063.6 303.153 1063.45 302.974 1063.58 302.849C1063.7 302.723 1063.88 302.828 1063.98 302.902C1064.22 303.081 1063.78 303.277 1063.61 303.157L1063.66 303.259Z" fill="white"/>
</g>
<g style="mix-blend-mode:soft-light" opacity="0.36">
<path fill-rule="evenodd" clip-rule="evenodd" d="M1066.68 301.567C1066.74 301.673 1066.83 301.756 1066.95 301.802C1067.02 301.828 1067.11 301.823 1067.18 301.788C1067.26 301.753 1067.32 301.69 1067.35 301.613C1067.48 301.373 1067.51 301.179 1067.31 301.006C1067.22 300.953 1067.13 300.919 1067.03 300.905C1066.93 300.892 1066.82 300.9 1066.73 300.93C1066.65 300.96 1066.58 301.014 1066.54 301.085C1066.46 301.232 1066.53 301.357 1066.6 301.483L1066.68 301.567Z" fill="white"/>
</g>
<g style="mix-blend-mode:soft-light" opacity="0.36">
<path fill-rule="evenodd" clip-rule="evenodd" d="M1077.06 300.173C1077.07 299.717 1077.14 299.264 1077.26 298.825C1077.41 298.455 1077.57 298.093 1077.76 297.741C1077.94 297.223 1078.09 296.693 1078.19 296.155C1078.29 295.682 1078.5 295.241 1078.81 294.87C1078.94 294.72 1079.1 294.598 1079.27 294.512C1079.45 294.425 1079.64 294.375 1079.84 294.365C1080.08 294.375 1080.31 294.424 1080.53 294.512C1080.63 294.566 1080.73 294.595 1080.83 294.633C1080.9 294.648 1080.96 294.67 1081.02 294.698C1081.11 294.748 1081.09 294.788 1081.04 294.875C1080.97 295.034 1080.85 295.167 1080.7 295.256C1080.45 295.425 1080.23 295.638 1080.05 295.884C1079.87 296.114 1079.68 296.325 1079.51 296.567L1079.02 297.268C1078.87 297.466 1078.72 297.661 1078.57 297.863C1078.43 298.066 1078.31 298.276 1078.18 298.483C1078.05 298.69 1077.99 298.839 1077.89 299.017C1077.83 299.13 1077.75 299.227 1077.69 299.34C1077.65 299.428 1077.59 299.511 1077.53 299.59C1077.48 299.671 1077.44 299.755 1077.4 299.841C1077.3 299.964 1077.18 300.075 1077.06 300.173Z" fill="white"/>
</g>
<g style="mix-blend-mode:soft-light" opacity="0.36">
<path fill-rule="evenodd" clip-rule="evenodd" d="M1076.75 297.037C1076.76 297.115 1076.76 297.21 1076.82 297.261C1076.86 297.286 1076.89 297.306 1076.93 297.32C1077.11 297.368 1077.26 297.104 1077.33 296.974C1077.55 296.602 1077.62 296.16 1077.53 295.738C1077.5 295.594 1077.43 295.46 1077.33 295.347C1077.24 295.233 1077.12 295.142 1076.99 295.081C1076.61 294.973 1076.23 295.234 1076 295.507C1075.76 295.779 1075.54 296.165 1075.64 296.513C1075.67 296.635 1075.74 296.744 1075.84 296.823C1075.93 296.866 1076.02 296.904 1076.12 296.936C1076.24 297 1076.31 297.117 1076.46 297.117C1076.56 297.122 1076.66 297.094 1076.75 297.037Z" fill="white"/>
</g>
<g style="mix-blend-mode:soft-light" opacity="0.36">
<path fill-rule="evenodd" clip-rule="evenodd" d="M1077.94 294.883C1077.9 294.879 1077.86 294.863 1077.83 294.837C1077.8 294.811 1077.78 294.776 1077.78 294.738C1077.75 294.7 1077.74 294.656 1077.75 294.613C1077.75 294.569 1077.77 294.529 1077.8 294.497C1077.83 294.469 1077.86 294.446 1077.9 294.43C1077.93 294.415 1077.97 294.407 1078.01 294.408C1078.05 294.409 1078.09 294.418 1078.12 294.435C1078.16 294.452 1078.19 294.476 1078.21 294.505C1078.24 294.552 1078.25 294.604 1078.26 294.658C1078.26 294.712 1078.25 294.765 1078.22 294.813C1078.2 294.865 1078.15 294.907 1078.1 294.932C1078.05 294.957 1077.99 294.964 1077.94 294.951L1077.94 294.883Z" fill="white"/>
</g>
<g style="mix-blend-mode:soft-light" opacity="0.36">
<path fill-rule="evenodd" clip-rule="evenodd" d="M1071.68 287.917C1071.65 288.054 1071.67 288.198 1071.75 288.318C1071.76 288.353 1071.79 288.384 1071.82 288.407C1071.85 288.429 1071.88 288.442 1071.92 288.444C1072.18 288.441 1072.42 288.347 1072.61 288.179C1072.68 288.12 1072.73 288.05 1072.76 287.972C1072.8 287.894 1072.81 287.811 1072.82 287.726C1072.79 287.575 1072.75 287.428 1072.68 287.291C1072.64 287.167 1072.58 287.051 1072.52 286.927C1072.49 286.821 1072.42 286.728 1072.34 286.661C1072.25 286.594 1072.14 286.557 1072.04 286.555C1071.92 286.566 1071.8 286.607 1071.7 286.673C1071.6 286.739 1071.52 286.829 1071.47 286.934C1071.4 287.083 1071.38 287.245 1071.39 287.407C1071.4 287.577 1071.38 287.719 1071.68 287.917Z" fill="white"/>
</g>
<g style="mix-blend-mode:soft-light" opacity="0.36">
<path fill-rule="evenodd" clip-rule="evenodd" d="M1072.09 289.08C1072.16 288.977 1072.24 288.887 1072.34 288.815C1072.39 288.841 1072.45 288.795 1072.49 288.849C1072.54 288.902 1072.46 289.043 1072.42 289.103C1072.38 289.184 1072.3 289.244 1072.21 289.271C1072.18 289.278 1072.04 289.32 1072.07 289.245L1072.09 289.08Z" fill="white"/>
</g>
<g style="mix-blend-mode:soft-light" opacity="0.36">
<path fill-rule="evenodd" clip-rule="evenodd" d="M1073.09 302.226C1073.17 302.36 1073.27 302.509 1073.47 302.46C1073.55 302.423 1073.63 302.362 1073.67 302.284C1073.72 302.207 1073.75 302.116 1073.75 302.024C1073.76 301.933 1073.76 301.832 1073.69 301.776C1073.61 301.721 1073.52 301.684 1073.43 301.638C1073.23 301.53 1073.2 301.243 1072.91 301.323C1072.84 301.345 1072.78 301.382 1072.72 301.431C1072.67 301.479 1072.63 301.539 1072.6 301.606C1072.53 301.833 1072.68 302.052 1072.82 302.215L1073.09 302.226Z" fill="white"/>
</g>
<g style="mix-blend-mode:soft-light" opacity="0.36">
<path fill-rule="evenodd" clip-rule="evenodd" d="M1071.67 322.62C1071.6 322.877 1071.6 323.148 1071.67 323.404L1071.76 323.452C1071.81 323.525 1071.88 323.585 1071.96 323.629C1072.05 323.672 1072.13 323.698 1072.23 323.704C1072.81 323.709 1073.02 323.2 1073.25 322.76C1073.48 322.321 1073.87 321.722 1073.11 321.594C1072.78 321.541 1072.22 321.414 1071.89 321.589C1071.71 321.682 1071.72 321.782 1071.69 321.95C1071.63 322.181 1071.62 322.421 1071.65 322.657L1071.67 322.62Z" fill="white"/>
</g>
<g style="mix-blend-mode:soft-light" opacity="0.36">
<path fill-rule="evenodd" clip-rule="evenodd" d="M1075.28 317.64C1075.2 317.499 1075.01 317.264 1075.09 317.069C1075.17 316.875 1075.27 316.907 1075.4 316.841C1075.69 316.693 1076.04 316.586 1076.21 316.981C1076.24 317.087 1076.25 317.2 1076.24 317.31C1076.22 317.42 1076.18 317.525 1076.12 317.616C1076 317.756 1075.68 317.919 1075.52 317.77L1075.28 317.64Z" fill="white"/>
</g>
<g style="mix-blend-mode:soft-light" opacity="0.36">
<path fill-rule="evenodd" clip-rule="evenodd" d="M1046.89 273.452C1047.15 273.815 1047.16 273.839 1047.57 273.932C1047.87 274.04 1048.2 274.07 1048.52 274.02C1048.96 273.889 1049.07 273.497 1049.33 273.197C1049.43 273.112 1049.5 273.002 1049.55 272.879C1049.59 272.756 1049.6 272.624 1049.58 272.495C1049.51 272.158 1049.39 271.836 1049.21 271.545C1048.89 271.1 1048.49 270.73 1048.01 270.46C1047.54 270.191 1047.01 270.028 1046.47 269.985C1045.81 269.937 1045 269.966 1044.5 270.488C1044.29 270.701 1044.13 270.969 1044.06 271.262C1043.98 271.556 1043.99 271.864 1044.07 272.155C1044.18 272.436 1044.35 272.687 1044.58 272.887C1044.8 273.087 1045.07 273.23 1045.36 273.304L1045.78 273.397C1045.95 273.466 1046.1 273.551 1046.25 273.651C1046.43 273.715 1046.64 273.7 1046.89 273.452Z" fill="white"/>
</g>
<g style="mix-blend-mode:soft-light" opacity="0.36">
<path fill-rule="evenodd" clip-rule="evenodd" d="M1047.73 275.162C1048.19 274.972 1048.1 275 1048.48 275.124C1048.64 275.182 1048.7 275.137 1048.83 275.247C1048.9 275.336 1048.95 275.446 1048.96 275.563C1048.97 275.68 1048.95 275.797 1048.9 275.901C1048.82 276.045 1048.42 276.116 1048.28 276.115C1048.19 276.118 1048.11 276.096 1048.04 276.052C1047.96 276.007 1047.91 275.943 1047.87 275.865L1047.73 275.162Z" fill="white"/>
</g>
<g style="mix-blend-mode:soft-light" opacity="0.36">
<path fill-rule="evenodd" clip-rule="evenodd" d="M1029.24 309.314C1029.48 309.537 1029.78 309.827 1030.17 309.612C1030.43 309.462 1030.47 309.047 1030.43 308.772C1030.31 308.299 1030.05 307.876 1029.68 307.564C1029.33 307.312 1028.69 307.552 1028.46 307.873C1028 308.531 1028.9 309.496 1029.39 309.828L1029.24 309.314Z" fill="white"/>
</g>
<g style="mix-blend-mode:soft-light" opacity="0.36">
<path fill-rule="evenodd" clip-rule="evenodd" d="M1032.19 311.528C1032.08 311.524 1031.75 311.566 1031.67 311.483C1031.62 311.457 1031.65 311.382 1031.62 311.338C1031.57 311.265 1031.54 311.183 1031.52 311.096C1031.5 311.01 1031.51 310.921 1031.53 310.835C1031.58 310.661 1031.68 310.509 1031.82 310.4C1031.97 310.292 1032.14 310.234 1032.32 310.236C1032.44 310.22 1032.56 310.247 1032.66 310.312C1032.76 310.377 1032.83 310.477 1032.86 310.591C1032.9 310.744 1032.89 310.908 1032.82 311.05C1032.75 311.192 1032.62 311.303 1032.48 311.361L1032.19 311.528Z" fill="white"/>
</g>
<g style="mix-blend-mode:soft-light" opacity="0.36">
<path fill-rule="evenodd" clip-rule="evenodd" d="M1086.18 300.473C1086.57 300.947 1087.1 301.282 1087.7 301.425C1088.08 301.541 1088.55 301.735 1088.9 301.447C1089.73 300.771 1088.24 299.112 1087.74 298.635C1087.31 298.217 1086.79 297.895 1086.23 297.69C1085.89 297.581 1085.14 297.494 1084.82 297.714C1084.41 297.997 1084.41 298.586 1084.59 298.976C1084.99 299.921 1085.99 300.256 1086.65 300.945L1086.18 300.473Z" fill="white"/>
</g>
<g style="mix-blend-mode:soft-light" opacity="0.36">
<path fill-rule="evenodd" clip-rule="evenodd" d="M1085.82 300.854C1085.72 301.075 1085.65 301.309 1085.62 301.549C1085.63 301.678 1085.64 301.883 1085.75 301.983C1085.83 302.032 1085.91 302.062 1086 302.068C1086.09 302.075 1086.18 302.059 1086.26 302.022C1086.32 302.004 1086.38 301.972 1086.43 301.927C1086.47 301.882 1086.5 301.827 1086.52 301.765C1086.54 301.67 1086.46 301.545 1086.42 301.462C1086.35 301.31 1086.25 301.167 1086.14 301.036C1086.1 300.967 1086.05 300.904 1085.99 300.848C1085.89 300.764 1085.81 300.819 1085.71 300.8L1085.82 300.854Z" fill="white"/>
</g>
<g style="mix-blend-mode:soft-light" opacity="0.36">
<path fill-rule="evenodd" clip-rule="evenodd" d="M1090.05 303.763L1090.34 303.554C1090.44 303.635 1090.59 303.662 1090.61 303.812C1090.59 303.954 1090.53 304.088 1090.43 304.191C1090.38 304.242 1090.32 304.275 1090.25 304.285C1090.18 304.294 1090.1 304.279 1090.04 304.243C1089.89 304.16 1089.9 303.983 1089.95 303.831L1090.05 303.763Z" fill="white"/>
</g>
<g style="mix-blend-mode:soft-light" opacity="0.36">
<path fill-rule="evenodd" clip-rule="evenodd" d="M1088.85 320.509C1088.9 320.571 1088.96 320.619 1089.03 320.644C1089.1 320.67 1089.17 320.672 1089.25 320.65C1089.37 320.621 1089.47 320.548 1089.55 320.443C1089.62 320.339 1089.64 320.212 1089.62 320.088C1089.57 319.729 1089.28 319.209 1088.9 319.1C1088.66 319.031 1088.26 319.177 1088.27 319.463C1088.27 319.624 1088.29 319.785 1088.33 319.941C1088.43 320.172 1088.6 320.364 1088.82 320.487L1088.85 320.509Z" fill="white"/>
</g>
<g style="mix-blend-mode:soft-light" opacity="0.36">
<path fill-rule="evenodd" clip-rule="evenodd" d="M1023.77 271.587C1023.81 271.736 1023.81 271.806 1023.92 271.9C1024.04 272.017 1024.2 272.083 1024.37 272.084C1024.76 271.999 1025.1 271.782 1025.35 271.469C1025.45 271.367 1025.53 271.242 1025.57 271.106C1025.61 270.969 1025.62 270.825 1025.6 270.683C1025.59 270.517 1025.54 270.356 1025.46 270.211C1025.38 270.066 1025.27 269.939 1025.14 269.84C1025.01 269.729 1024.86 269.659 1024.69 269.639C1024.53 269.62 1024.36 269.653 1024.22 269.734C1023.91 269.877 1023.63 270.082 1023.41 270.337C1023.33 270.438 1023.27 270.558 1023.25 270.685C1023.22 270.812 1023.23 270.943 1023.26 271.067C1023.31 271.317 1023.45 271.683 1023.77 271.587Z" fill="white"/>
</g>
<g style="mix-blend-mode:soft-light" opacity="0.36">
<path fill-rule="evenodd" clip-rule="evenodd" d="M1026 269.852C1025.91 269.806 1025.81 269.753 1025.83 269.659C1025.87 269.582 1025.93 269.513 1025.99 269.457C1026.06 269.401 1026.13 269.359 1026.22 269.333C1026.35 269.303 1026.48 269.322 1026.6 269.386C1026.66 269.452 1026.7 269.538 1026.71 269.629C1026.72 269.695 1026.71 269.764 1026.69 269.826C1026.66 269.888 1026.61 269.94 1026.55 269.974C1026.47 270.02 1026.28 270.148 1026.19 270.063L1026 269.852Z" fill="white"/>
</g>
<g style="mix-blend-mode:soft-light" opacity="0.36">
<path fill-rule="evenodd" clip-rule="evenodd" d="M1011.62 271.068C1011.74 271.153 1011.88 271.193 1012.02 271.182C1012.28 271.163 1012.54 271.085 1012.76 270.953C1013.07 270.799 1013.32 270.55 1013.47 270.243C1013.51 270.12 1013.51 269.989 1013.47 269.866C1013.43 269.744 1013.36 269.635 1013.26 269.553C1013 269.379 1012.69 269.302 1012.38 269.335C1012.11 269.373 1011.84 269.476 1011.62 269.637C1011.39 269.797 1011.2 270.01 1011.07 270.258C1010.82 270.834 1011.63 271.294 1011.62 271.068Z" fill="white"/>
</g>
<g style="mix-blend-mode:soft-light" opacity="0.36">
<path fill-rule="evenodd" clip-rule="evenodd" d="M1014.84 269.711C1014.75 269.741 1014.66 269.748 1014.57 269.729C1014.58 269.627 1014.5 269.555 1014.52 269.449C1014.54 269.346 1014.61 269.256 1014.7 269.199C1014.75 269.158 1014.82 269.133 1014.88 269.126C1014.95 269.119 1015.02 269.13 1015.08 269.159C1015.22 269.235 1015.23 269.299 1015.23 269.447C1015.22 269.595 1015.23 269.582 1015.12 269.642C1015.05 269.685 1014.98 269.721 1014.91 269.749L1014.84 269.711Z" fill="white"/>
</g>
</g>
<path fill-rule="evenodd" clip-rule="evenodd" d="M1068.06 321.714C1068.51 321.953 1068.73 322.411 1068.55 322.736C1068.38 323.061 1067.87 323.129 1067.43 322.89C1066.99 322.651 1066.77 322.195 1066.94 321.87C1067.12 321.545 1067.62 321.476 1068.06 321.714Z" fill="url(#paint27_linear_1_1079)"/>
<path fill-rule="evenodd" clip-rule="evenodd" d="M1068 321.839C1068.35 322.027 1068.52 322.386 1068.38 322.643C1068.24 322.9 1067.85 322.954 1067.5 322.766C1067.15 322.577 1066.98 322.219 1067.11 321.961C1067.25 321.704 1067.65 321.652 1068 321.839Z" fill="white"/>
<path fill-rule="evenodd" clip-rule="evenodd" d="M1079.04 297.319C1079.24 297.404 1079.4 297.565 1079.48 297.767C1079.57 297.97 1079.57 298.197 1079.49 298.401C1079.36 298.581 1079.17 298.704 1078.96 298.745C1078.74 298.786 1078.52 298.741 1078.34 298.619C1078.13 298.533 1077.97 298.372 1077.89 298.17C1077.8 297.967 1077.8 297.74 1077.88 297.535C1078.01 297.355 1078.2 297.232 1078.42 297.192C1078.63 297.151 1078.85 297.197 1079.04 297.319Z" fill="url(#paint28_linear_1_1079)"/>
<path fill-rule="evenodd" clip-rule="evenodd" d="M1078.96 297.457C1079.12 297.525 1079.25 297.651 1079.31 297.811C1079.38 297.97 1079.38 298.149 1079.32 298.31C1079.22 298.451 1079.07 298.548 1078.9 298.58C1078.73 298.612 1078.55 298.576 1078.41 298.48C1078.25 298.413 1078.13 298.286 1078.06 298.127C1077.99 297.968 1077.99 297.789 1078.05 297.628C1078.15 297.487 1078.3 297.389 1078.47 297.358C1078.64 297.326 1078.82 297.362 1078.96 297.457Z" fill="white"/>
<path d="M1073.37 309.485C1073.61 309.035 1073.45 308.477 1073 308.237C1072.56 307.998 1072 308.168 1071.76 308.618C1071.52 309.067 1071.68 309.626 1072.13 309.865C1072.57 310.104 1073.13 309.934 1073.37 309.485Z" fill="url(#paint29_linear_1_1079)"/>
<path fill-rule="evenodd" clip-rule="evenodd" d="M1072.91 308.41C1073.08 308.502 1073.2 308.657 1073.26 308.841C1073.31 309.026 1073.29 309.223 1073.2 309.392C1073.11 309.561 1072.95 309.688 1072.77 309.744C1072.59 309.801 1072.39 309.782 1072.22 309.693C1072.05 309.6 1071.93 309.445 1071.87 309.261C1071.82 309.077 1071.84 308.879 1071.93 308.71C1072.02 308.541 1072.17 308.414 1072.36 308.358C1072.54 308.302 1072.74 308.32 1072.91 308.41Z" fill="white"/>
<path style="mix-blend-mode:screen" d="M1073.39 303.47C1074.08 303.556 1074.75 303.779 1075.36 304.126C1075.97 304.472 1076.5 304.937 1076.93 305.491C1077.36 306.046 1077.67 306.68 1077.85 307.356C1078.03 308.033 1078.08 308.738 1077.98 309.432C1077.8 310.84 1077.08 312.122 1075.96 312.999C1074.84 313.875 1073.43 314.276 1072.02 314.115C1071.32 314.029 1070.65 313.806 1070.04 313.459C1069.44 313.112 1068.9 312.648 1068.48 312.093C1068.05 311.539 1067.73 310.905 1067.55 310.229C1067.37 309.552 1067.33 308.847 1067.42 308.153C1067.6 306.745 1068.33 305.463 1069.44 304.587C1070.56 303.71 1071.98 303.309 1073.39 303.47Z" fill="url(#paint30_radial_1_1079)"/>
<path style="mix-blend-mode:screen" d="M1041.97 263.028C1042.53 263.096 1043.06 263.274 1043.55 263.551C1044.03 263.828 1044.46 264.198 1044.8 264.64C1045.14 265.083 1045.39 265.588 1045.54 266.128C1045.68 266.667 1045.72 267.23 1045.64 267.784C1045.5 268.908 1044.92 269.931 1044.03 270.63C1043.13 271.33 1042 271.65 1040.88 271.521C1040.32 271.452 1039.79 271.274 1039.3 270.997C1038.82 270.72 1038.39 270.349 1038.05 269.907C1037.71 269.464 1037.46 268.958 1037.32 268.419C1037.17 267.879 1037.14 267.316 1037.21 266.762C1037.35 265.639 1037.93 264.617 1038.82 263.918C1039.72 263.219 1040.85 262.899 1041.97 263.028Z" fill="url(#paint31_radial_1_1079)"/>
<path style="mix-blend-mode:screen" d="M1005.8 269.557C1006.36 269.625 1006.89 269.803 1007.38 270.08C1007.86 270.357 1008.29 270.727 1008.63 271.169C1008.97 271.611 1009.22 272.117 1009.37 272.657C1009.51 273.196 1009.55 273.759 1009.47 274.313C1009.33 275.438 1008.75 276.461 1007.86 277.161C1006.97 277.861 1005.83 278.18 1004.71 278.05C1004.15 277.982 1003.62 277.804 1003.13 277.527C1002.65 277.251 1002.22 276.88 1001.88 276.438C1001.54 275.996 1001.29 275.49 1001.14 274.95C1001 274.411 1000.96 273.848 1001.04 273.294C1001.18 272.17 1001.76 271.147 1002.65 270.447C1003.54 269.747 1004.68 269.428 1005.8 269.557Z" fill="url(#paint32_radial_1_1079)"/>
<path style="mix-blend-mode:screen" d="M1020.06 304.635C1020.35 304.671 1020.62 304.762 1020.87 304.905C1021.12 305.048 1021.34 305.24 1021.52 305.468C1021.7 305.697 1021.83 305.958 1021.9 306.236C1021.98 306.515 1021.99 306.806 1021.96 307.092C1021.88 307.673 1021.58 308.202 1021.12 308.564C1020.66 308.926 1020.08 309.091 1019.49 309.025C1019.21 308.989 1018.93 308.897 1018.68 308.754C1018.43 308.611 1018.21 308.42 1018.03 308.191C1017.86 307.962 1017.73 307.701 1017.65 307.422C1017.58 307.143 1017.56 306.852 1017.6 306.565C1017.67 305.985 1017.97 305.457 1018.43 305.096C1018.89 304.735 1019.48 304.569 1020.06 304.635Z" fill="url(#paint33_radial_1_1079)"/>
<path style="mix-blend-mode:screen" d="M1078.75 296.298C1079.02 296.33 1079.28 296.416 1079.52 296.549C1079.75 296.683 1079.96 296.862 1080.12 297.076C1080.29 297.29 1080.41 297.535 1080.48 297.796C1080.55 298.058 1080.57 298.331 1080.53 298.599C1080.47 299.143 1080.19 299.637 1079.76 299.975C1079.32 300.313 1078.78 300.467 1078.23 300.403C1077.96 300.37 1077.71 300.285 1077.47 300.151C1077.24 300.018 1077.03 299.839 1076.87 299.626C1076.7 299.412 1076.58 299.168 1076.51 298.908C1076.44 298.647 1076.43 298.375 1076.46 298.108C1076.53 297.566 1076.81 297.072 1077.24 296.734C1077.66 296.395 1078.21 296.238 1078.75 296.298Z" fill="url(#paint34_radial_1_1079)"/>
<path style="mix-blend-mode:screen" d="M1067.81 320.63C1068.08 320.663 1068.34 320.749 1068.57 320.882C1068.8 321.016 1069.01 321.195 1069.17 321.409C1069.34 321.623 1069.46 321.867 1069.53 322.128C1069.6 322.388 1069.62 322.66 1069.58 322.928C1069.51 323.471 1069.23 323.965 1068.8 324.303C1068.37 324.641 1067.82 324.795 1067.28 324.733C1067.01 324.7 1066.75 324.614 1066.52 324.481C1066.28 324.347 1066.08 324.168 1065.91 323.954C1065.75 323.74 1065.63 323.496 1065.56 323.235C1065.49 322.974 1065.47 322.702 1065.51 322.434C1065.58 321.891 1065.86 321.397 1066.29 321.059C1066.72 320.721 1067.27 320.567 1067.81 320.63Z" fill="url(#paint35_radial_1_1079)"/>
</g>
<defs>
<linearGradient id="paint0_linear_1_1079" x1="1138.75" y1="341.871" x2="1099.33" y2="320.645" gradientUnits="userSpaceOnUse">
<stop stop-opacity="0"/>
<stop offset="1" stop-color="#106D90"/>
</linearGradient>
<linearGradient id="paint1_linear_1_1079" x1="1113.23" y1="308.284" x2="1086.84" y2="294.073" gradientUnits="userSpaceOnUse">
<stop stop-color="#A43440"/>
<stop offset="1" stop-color="#C73634"/>
</linearGradient>
<linearGradient id="paint2_linear_1_1079" x1="1093.73" y1="344.508" x2="1067.34" y2="330.296" gradientUnits="userSpaceOnUse">
<stop stop-color="#A43440"/>
<stop offset="1" stop-color="#C73634"/>
</linearGradient>
<radialGradient id="paint3_radial_1_1079" cx="0" cy="0" r="1" gradientUnits="userSpaceOnUse" gradientTransform="translate(1032.91 282.432) rotate(-61.702) scale(34.063 61.4731)">
<stop stop-color="#81BDD6"/>
<stop offset="0.77" stop-color="#8D6FC7"/>
<stop offset="0.96" stop-color="#B695E5"/>
</radialGradient>
<radialGradient id="paint4_radial_1_1079" cx="0" cy="0" r="1" gradientUnits="userSpaceOnUse" gradientTransform="translate(1004.42 273.231) rotate(-61.702) scale(9.15601 8.1686)">
<stop offset="0.02" stop-color="#81BDD6"/>
<stop offset="0.25" stop-color="#9F577B"/>
<stop offset="0.67" stop-color="#7F458C"/>
<stop offset="0.99" stop-color="#61349C"/>
</radialGradient>
<linearGradient id="paint5_linear_1_1079" x1="1006.22" y1="274.195" x2="1002.92" y2="272.419" gradientUnits="userSpaceOnUse">
<stop stop-color="#FFFF18"/>
<stop offset="1" stop-color="#FF7400"/>
</linearGradient>
<radialGradient id="paint6_radial_1_1079" cx="0" cy="0" r="1" gradientUnits="userSpaceOnUse" gradientTransform="translate(1075.64 311.884) rotate(-61.702) scale(16.1744 29.336)">
<stop offset="0.02" stop-color="#8881BC"/>
<stop offset="0.29" stop-color="#8375B7"/>
<stop offset="0.77" stop-color="#7555AA"/>
<stop offset="0.99" stop-color="#6D43A3"/>
</radialGradient>
<radialGradient id="paint7_radial_1_1079" cx="0" cy="0" r="1" gradientUnits="userSpaceOnUse" gradientTransform="translate(1035.97 290.437) rotate(-61.702) scale(17.199 17.0304)">
<stop offset="0.02" stop-color="#63A0C2"/>
<stop offset="0.29" stop-color="#8375B7"/>
<stop offset="0.77" stop-color="#7555AA"/>
<stop offset="0.99" stop-color="#6D43A3"/>
</radialGradient>
<radialGradient id="paint8_radial_1_1079" cx="0" cy="0" r="1" gradientUnits="userSpaceOnUse" gradientTransform="translate(1021.3 283.348) rotate(-61.702) scale(21.3977 35.3445)">
<stop offset="0.02" stop-color="#5E8EB0"/>
<stop offset="0.38" stop-color="#6D52AA"/>
<stop offset="0.99" stop-color="#61349C"/>
</radialGradient>
<linearGradient id="paint9_linear_1_1079" x1="1044.77" y1="294.734" x2="1021.71" y2="282.32" gradientUnits="userSpaceOnUse">
<stop stop-color="#FFFF29"/>
<stop offset="1" stop-color="#FF7E59"/>
</linearGradient>
<radialGradient id="paint10_radial_1_1079" cx="0" cy="0" r="1" gradientUnits="userSpaceOnUse" gradientTransform="translate(1097.41 323.289) rotate(-61.702) scale(6.35389 11.5242)">
<stop offset="0.02" stop-color="#5E75B0"/>
<stop offset="0.38" stop-color="#6D52AA"/>
<stop offset="0.99" stop-color="#61349C"/>
</radialGradient>
<radialGradient id="paint11_radial_1_1079" cx="0" cy="0" r="1" gradientUnits="userSpaceOnUse" gradientTransform="translate(1016.59 279.839) rotate(-61.702) scale(11.7094 11.5945)">
<stop offset="0.02" stop-color="#8881BC"/>
<stop offset="0.29" stop-color="#8375B7"/>
<stop offset="0.77" stop-color="#7555AA"/>
<stop offset="0.99" stop-color="#6D43A3"/>
</radialGradient>
<linearGradient id="paint12_linear_1_1079" x1="1064.69" y1="306.47" x2="1063.3" y2="305.721" gradientUnits="userSpaceOnUse">
<stop stop-color="#8DC7FF"/>
<stop offset="0.32" stop-color="#5C4D86"/>
</linearGradient>
<radialGradient id="paint13_radial_1_1079" cx="0" cy="0" r="1" gradientUnits="userSpaceOnUse" gradientTransform="translate(1064.43 306.486) rotate(-61.7016) scale(0.631791 0.625603)">
<stop offset="0.02" stop-color="#8881BC"/>
<stop offset="0.29" stop-color="#8375B7"/>
<stop offset="0.77" stop-color="#7555AA"/>
<stop offset="1" stop-color="#6D43A3"/>
</radialGradient>
<linearGradient id="paint14_linear_1_1079" x1="1061.26" y1="304.623" x2="1059.87" y2="303.873" gradientUnits="userSpaceOnUse">
<stop stop-color="#8DC7FF"/>
<stop offset="0.32" stop-color="#5C4D86"/>
</linearGradient>
<radialGradient id="paint15_radial_1_1079" cx="0" cy="0" r="1" gradientUnits="userSpaceOnUse" gradientTransform="translate(1060.99 304.631) rotate(-61.7024) scale(0.631786 0.625585)">
<stop offset="0.02" stop-color="#81BDD6"/>
<stop offset="0.29" stop-color="#8375B7"/>
<stop offset="0.77" stop-color="#7555AA"/>
<stop offset="1" stop-color="#6D43A3"/>
</radialGradient>
<radialGradient id="paint16_radial_1_1079" cx="0" cy="0" r="1" gradientUnits="userSpaceOnUse" gradientTransform="translate(1031.28 303.602) rotate(-61.7019) scale(0.631789 0.625596)">
<stop stop-color="#81BDD6"/>
<stop offset="1" stop-color="#8D6FC7"/>
</radialGradient>
<radialGradient id="paint17_radial_1_1079" cx="0" cy="0" r="1" gradientUnits="userSpaceOnUse" gradientTransform="translate(1022.06 297.047) rotate(-61.7023) scale(0.631787 0.62559)">
<stop stop-color="#81BDD6"/>
<stop offset="1" stop-color="#8D6FC7"/>
</radialGradient>
<radialGradient id="paint18_radial_1_1079" cx="0" cy="0" r="1" gradientUnits="userSpaceOnUse" gradientTransform="translate(1042.63 301.204) rotate(-61.7025) scale(0.631786 0.625587)">
<stop stop-color="#81BDD6"/>
<stop offset="1" stop-color="#8D6FC7"/>
</radialGradient>
<radialGradient id="paint19_radial_1_1079" cx="0" cy="0" r="1" gradientUnits="userSpaceOnUse" gradientTransform="translate(1049.35 290.742) rotate(-61.7024) scale(0.631786 0.625585)">
<stop stop-color="#81BDD6"/>
<stop offset="1" stop-color="#8D6FC7"/>
</radialGradient>
<radialGradient id="paint20_radial_1_1079" cx="0" cy="0" r="1" gradientUnits="userSpaceOnUse" gradientTransform="translate(1046.81 279.845) rotate(-61.7013) scale(0.631793 0.62561)">
<stop stop-color="#81BDD6"/>
<stop offset="1" stop-color="#8D6FC7"/>
</radialGradient>
<radialGradient id="paint21_radial_1_1079" cx="0" cy="0" r="1" gradientUnits="userSpaceOnUse" gradientTransform="translate(1033.83 274.318) rotate(-61.7019) scale(0.631788 0.625596)">
<stop stop-color="#18669E"/>
<stop offset="1" stop-color="#8D6FC7"/>
</radialGradient>
<radialGradient id="paint22_radial_1_1079" cx="0" cy="0" r="1" gradientUnits="userSpaceOnUse" gradientTransform="translate(1024.47 276.439) rotate(-61.7019) scale(0.631788 0.625596)">
<stop stop-color="#81BDD6"/>
<stop offset="1" stop-color="#8D6FC7"/>
</radialGradient>
<radialGradient id="paint23_radial_1_1079" cx="0" cy="0" r="1" gradientUnits="userSpaceOnUse" gradientTransform="translate(1018.43 285.25) rotate(-61.7016) scale(0.631791 0.625602)">
<stop stop-color="#81BDD6"/>
<stop offset="1" stop-color="#8D6FC7"/>
</radialGradient>
<linearGradient id="paint24_linear_1_1079" x1="1106.31" y1="321.139" x2="1076.98" y2="305.348" gradientUnits="userSpaceOnUse">
<stop stop-color="#A43411"/>
<stop offset="1" stop-color="#C73634"/>
</linearGradient>
<linearGradient id="paint25_linear_1_1079" x1="1041.5" y1="268.265" x2="1042.45" y2="266.507" gradientUnits="userSpaceOnUse">
<stop stop-color="#FFFF18"/>
<stop offset="1" stop-color="#FF7400"/>
</linearGradient>
<linearGradient id="paint26_linear_1_1079" x1="1019.6" y1="307.802" x2="1020.49" y2="306.149" gradientUnits="userSpaceOnUse">
<stop stop-color="#FFFF18"/>
<stop offset="1" stop-color="#FF7400"/>
</linearGradient>
<linearGradient id="paint27_linear_1_1079" x1="1068.55" y1="322.736" x2="1066.94" y2="321.87" gradientUnits="userSpaceOnUse">
<stop stop-color="#8DC7FF"/>
<stop offset="0.32" stop-color="#5C4D86"/>
</linearGradient>
<linearGradient id="paint28_linear_1_1079" x1="1079.49" y1="298.404" x2="1077.89" y2="297.538" gradientUnits="userSpaceOnUse">
<stop stop-color="#8DC7FF"/>
<stop offset="0.32" stop-color="#5C4D86"/>
</linearGradient>
<linearGradient id="paint29_linear_1_1079" x1="1073.37" y1="309.485" x2="1071.76" y2="308.619" gradientUnits="userSpaceOnUse">
<stop stop-color="#8DC7FF"/>
<stop offset="0.32" stop-color="#5C4D86"/>
</linearGradient>
<radialGradient id="paint30_radial_1_1079" cx="0" cy="0" r="1" gradientUnits="userSpaceOnUse" gradientTransform="translate(1072.72 308.894) rotate(-82.7944) scale(5.38395 5.317)">
<stop stop-color="#003CEE"/>
<stop offset="0.06" stop-color="#0036D6"/>
<stop offset="0.2" stop-color="#00289E"/>
<stop offset="0.34" stop-color="#001C6D"/>
<stop offset="0.48" stop-color="#001246"/>
<stop offset="0.62" stop-color="#000A27"/>
<stop offset="0.75" stop-color="#000412"/>
<stop offset="0.88" stop-color="#000104"/>
<stop offset="1"/>
</radialGradient>
<radialGradient id="paint31_radial_1_1079" cx="0" cy="0" r="1" gradientUnits="userSpaceOnUse" gradientTransform="translate(1041.39 267.235) rotate(-82.7943) scale(4.29561 4.24219)">
<stop stop-color="#FF9A00"/>
<stop offset="0.09" stop-color="#D68100"/>
<stop offset="0.23" stop-color="#9E5F00"/>
<stop offset="0.36" stop-color="#6E4200"/>
<stop offset="0.5" stop-color="#462A00"/>
<stop offset="0.63" stop-color="#271800"/>
<stop offset="0.76" stop-color="#120B00"/>
<stop offset="0.89" stop-color="#040300"/>
<stop offset="1"/>
</radialGradient>
<radialGradient id="paint32_radial_1_1079" cx="0" cy="0" r="1" gradientUnits="userSpaceOnUse" gradientTransform="translate(1005.27 273.781) rotate(-82.7943) scale(4.29561 4.24218)">
<stop stop-color="#FF9A00"/>
<stop offset="0.09" stop-color="#D68100"/>
<stop offset="0.23" stop-color="#9E5F00"/>
<stop offset="0.36" stop-color="#6E4200"/>
<stop offset="0.5" stop-color="#462A00"/>
<stop offset="0.63" stop-color="#271800"/>
<stop offset="0.76" stop-color="#120B00"/>
<stop offset="0.89" stop-color="#040300"/>
<stop offset="1"/>
</radialGradient>
<radialGradient id="paint33_radial_1_1079" cx="0" cy="0" r="1" gradientUnits="userSpaceOnUse" gradientTransform="translate(1019.84 306.913) rotate(-82.7944) scale(2.22003 2.19243)">
<stop stop-color="#FF9A00"/>
<stop offset="0.09" stop-color="#D68100"/>
<stop offset="0.23" stop-color="#9E5F00"/>
<stop offset="0.36" stop-color="#6E4200"/>
<stop offset="0.5" stop-color="#462A00"/>
<stop offset="0.63" stop-color="#271800"/>
<stop offset="0.76" stop-color="#120B00"/>
<stop offset="0.89" stop-color="#040300"/>
<stop offset="1"/>
</radialGradient>
<radialGradient id="paint34_radial_1_1079" cx="0" cy="0" r="1" gradientUnits="userSpaceOnUse" gradientTransform="translate(1078.47 298.416) rotate(-82.7944) scale(2.07556 2.04976)">
<stop stop-color="#003CEE"/>
<stop offset="0.06" stop-color="#0036D6"/>
<stop offset="0.2" stop-color="#00289E"/>
<stop offset="0.34" stop-color="#001C6D"/>
<stop offset="0.48" stop-color="#001246"/>
<stop offset="0.62" stop-color="#000A27"/>
<stop offset="0.75" stop-color="#000412"/>
<stop offset="0.88" stop-color="#000104"/>
<stop offset="1"/>
</radialGradient>
<radialGradient id="paint35_radial_1_1079" cx="0" cy="0" r="1" gradientUnits="userSpaceOnUse" gradientTransform="translate(1067.59 322.824) rotate(-82.7945) scale(2.07556 2.04974)">
<stop stop-color="#003CEE"/>
<stop offset="0.06" stop-color="#0036D6"/>
<stop offset="0.2" stop-color="#00289E"/>
<stop offset="0.34" stop-color="#001C6D"/>
<stop offset="0.48" stop-color="#001246"/>
<stop offset="0.62" stop-color="#000A27"/>
<stop offset="0.75" stop-color="#000412"/>
<stop offset="0.88" stop-color="#000104"/>
<stop offset="1"/>
</radialGradient>
</defs>
</svg>
