<svg width="16" height="16" viewBox="0 0 16 16" fill="none" xmlns="http://www.w3.org/2000/svg">
<path d="M13.8675 1.28003H2.13375C1.6625 1.28003 1.28 1.66253 1.28 2.13378V13.8663C1.28 14.3375 1.6625 14.72 2.13375 14.72H13.8662C14.3375 14.72 14.72 14.3375 14.72 13.8675V2.13378C14.72 1.66253 14.3375 1.28003 13.8675 1.28003ZM8.64 11.5788C8.64 12.8575 7.89 13.44 6.795 13.44C5.805 13.44 5.09125 12.7763 4.8 12.16L5.80625 11.5513C6 11.895 6.295 12.16 6.72 12.16C7.12625 12.16 7.36 12.0013 7.36 11.3838V7.36003H8.64V11.5788ZM11.4162 13.44C10.2825 13.44 9.63875 12.8688 9.28 12.16L10.24 11.52C10.5012 11.9475 10.7862 12.3563 11.3887 12.3563C11.895 12.3563 12.16 12.1038 12.16 11.7538C12.16 11.3363 11.885 11.1875 11.3287 10.9438L11.0237 10.8125C10.1425 10.4375 9.55625 9.96753 9.55625 8.97253C9.55625 8.05753 10.255 7.36003 11.345 7.36003C12.1212 7.36003 12.6787 7.63003 13.0812 8.33753L12.1312 8.94878C11.9212 8.57253 11.6962 8.42503 11.345 8.42503C10.9875 8.42503 10.7612 8.65253 10.7612 8.94878C10.7612 9.31503 10.9875 9.46253 11.5112 9.69003L11.8162 9.82128C12.855 10.265 13.44 10.7188 13.44 11.7388C13.44 12.8375 12.5762 13.44 11.4162 13.44Z" fill="white"/>
</svg>
