<svg width="460" height="277" viewBox="0 0 460 277" fill="none" xmlns="http://www.w3.org/2000/svg">
<g clip-path="url(#clip0_5_14)">
<path d="M155.842 248.555V236.632L175.891 233.423L161.086 198.353H189.765L204.626 233.423L228.007 236.632V248.555H155.842ZM42.9831 233.423L63.4489 236.632V248.555H1.15955V236.632L24.1235 233.423L38.8369 198.353H57.6733L42.9831 233.423ZM100.334 51.7739L94.2656 37.9598L117.766 28.4452L139.04 78.647H112.141L109.497 72.2374L106.865 78.647H89.0599L100.334 51.7739ZM266.975 233.423V198.353H293.807V231.76H346.279C370.553 231.76 390.681 224.385 406.665 209.635C410.423 206.12 413.751 202.359 416.651 198.353H442.252C432.413 214.155 418.865 226.514 401.608 235.429C384.553 244.179 366.209 248.555 346.577 248.555H244.427V236.632L266.975 233.423ZM266.975 52.6345L244.427 49.4241V37.5015H337.712C376.145 37.5015 406.051 46.5578 427.428 64.6715C432.46 68.9497 436.886 73.6078 440.709 78.647H408.827C401.094 70.5274 391.37 64.4742 379.656 60.4873C367.757 56.4746 353.518 54.4688 336.939 54.4677H293.806L293.807 78.647H266.975V52.6345Z" fill="#D2D6DC"/>
<g clip-path="url(#clip1_5_14)">
<g clip-path="url(#clip2_5_14)">
<g clip-path="url(#clip3_5_14)">
<g clip-path="url(#clip4_5_14)">
<g clip-path="url(#clip5_5_14)">
<g clip-path="url(#clip6_5_14)">
<g clip-path="url(#clip7_5_14)">
<path d="M48.0225 160.505V156.803L54.2469 155.807L47.1174 138.919H20.0586L12.9845 155.807L19.3383 156.803V160.505H0V156.803L7.12949 155.807L30.7898 99.4125L28.9058 95.1238L36.2016 92.1697L63.168 155.807L70.4268 156.803V160.505H48.0225ZM33.6342 105.766L22.1827 133.651H45.1411L33.6342 105.766ZM74.989 147.817H77.3347C77.3347 153.867 81.1826 156.892 88.8785 156.892C91.7845 156.892 94.1118 156.27 95.8603 155.024C97.4487 153.897 98.2429 152.479 98.2429 150.771C98.2429 148.979 97.7812 147.591 96.8577 146.606C95.023 144.661 92.3694 143.113 88.897 141.962C85.4246 140.799 82.8265 139.69 81.1026 138.634C79.3664 137.578 78.0058 136.469 77.0207 135.306C75.2968 133.337 74.4349 131.213 74.4349 128.935C74.4349 126.669 74.8781 124.813 75.7647 123.365C76.6513 121.918 77.8211 120.684 79.274 119.664C82.3401 117.552 85.8864 116.496 89.9129 116.496C94.7521 116.496 98.9756 117.523 102.583 119.575L101.549 127.957H99.111C99.111 123.413 95.9711 121.141 89.6912 121.141C86.9453 121.141 84.8705 121.657 83.4668 122.689C82.0507 123.709 81.3427 124.991 81.3427 126.533C81.3427 129.914 85.2645 132.981 93.1082 135.733C100.447 138.343 104.584 141.748 105.52 145.948C105.754 147.134 105.871 148.546 105.871 150.183C105.871 151.821 105.323 153.404 104.227 154.935C103.131 156.477 101.758 157.723 100.108 158.672C96.8823 160.558 93.1698 161.501 88.9709 161.501C84.8459 161.501 80.9979 160.736 77.427 159.206C75.8263 158.541 74.441 157.77 73.2712 156.892L74.989 147.817ZM153.21 154.17L154.023 158.245C149.639 160.416 146.469 161.501 144.511 161.501C140.127 161.501 137.935 159.704 137.935 156.109V154.775C137.504 155.38 136.353 156.264 134.481 157.426C132.597 158.577 131.132 159.384 130.086 159.846C127.586 160.95 125.69 161.501 124.397 161.501C123.104 161.501 122.039 161.454 121.201 161.359C120.364 161.252 119.49 161.057 118.579 160.772C117.68 160.475 116.793 160.066 115.919 159.544C115.045 159.022 114.263 158.346 113.573 157.515C112.046 155.653 111.283 153.232 111.283 150.255C111.283 146.138 112.797 143.267 115.827 141.642C117.76 140.574 119.798 139.909 121.94 139.648C124.095 139.387 126.059 139.186 127.832 139.043C131.194 138.759 134.561 138.587 137.935 138.527V129.398C137.935 126.883 137.603 125.204 136.938 124.362C135.83 122.879 134.1 122.138 131.748 122.138C126.515 122.138 121.374 123.775 116.325 127.049L113.721 123.276C120.752 118.756 127.05 116.496 132.616 116.496C137.455 116.496 140.878 117.784 142.885 120.358C144.449 122.363 145.231 125.204 145.231 128.882V151.732C145.231 153.867 145.656 155.083 146.506 155.38C146.801 155.463 147.189 155.504 147.669 155.504C148.876 155.504 150.723 155.059 153.21 154.17ZM137.935 150.771V142.175C129.39 142.496 123.916 143.32 121.515 144.649C119.681 145.657 118.763 147.295 118.763 149.561C118.763 152.835 120.069 154.846 122.679 155.593C123.405 155.795 124.286 155.896 125.32 155.896C126.367 155.896 127.58 155.694 128.959 155.291C130.338 154.887 131.612 154.395 132.782 153.814C135.011 152.77 136.729 151.755 137.935 150.771ZM180.398 161.501C176.52 161.501 172.856 160.796 169.409 159.384V180.222L175.134 181.237V184.831H156.184V181.237L162.057 180.222V123.97L156.184 122.921V119.397L169.409 116.496V122.226C174.666 118.406 179.863 116.496 184.997 116.496C190.502 116.496 195.014 118.448 198.536 122.351C202.107 126.325 203.892 131.528 203.892 137.958C203.892 144.352 201.91 149.768 197.945 154.205C193.611 159.069 187.762 161.501 180.398 161.501ZM169.409 126.622V151.429C171.982 154.763 176.082 156.43 181.71 156.43C186.044 156.43 189.56 154.775 192.256 151.465C194.78 148.428 196.043 144.768 196.043 140.485C196.043 135.182 194.904 130.875 192.626 127.565C190.163 123.947 186.807 122.138 182.559 122.138C178.323 122.138 173.94 123.632 169.409 126.622ZM251.952 155.807V99.6794L244.97 98.6829V94.9814H273.913C285.845 94.9814 295.135 97.7931 301.784 103.417C308.274 108.945 311.518 116.52 311.518 126.142C311.518 133.058 309.85 139.239 306.513 144.685C303.447 149.703 299.192 153.618 293.75 156.43C288.467 159.146 282.772 160.505 276.665 160.505H244.97V156.803L251.952 155.807ZM273.691 100.249H260.3V155.291H276.573C284.121 155.291 290.376 153.001 295.338 148.422C300.448 143.641 303.003 137.4 303.003 129.701C303.003 114.954 297.653 105.76 286.953 102.117C283.246 100.872 278.826 100.249 273.691 100.249ZM355.847 150.557L358.414 153.387C353.636 157.527 349.006 160.119 344.524 161.163C343.539 161.389 342.567 161.501 341.606 161.501C334.981 161.501 329.594 159.491 325.445 155.469C321.332 151.53 319.276 146.387 319.276 140.04C319.276 133.728 321.215 128.324 325.094 123.828C329.367 118.94 334.914 116.496 341.735 116.496C346.451 116.496 350.435 118.133 353.686 121.408C357.146 124.825 358.876 129.268 358.876 134.737L356.752 136.57L327.347 138.616C327.409 143.884 329.182 148.095 332.667 151.251C335.794 154.027 339.433 155.415 343.582 155.415C347.732 155.415 351.82 153.796 355.847 150.557ZM327.661 134.523L350.841 132.477C350.632 127.672 348.705 124.374 345.06 122.582C343.779 121.942 342.129 121.621 340.11 121.621C338.091 121.621 336.293 122.102 334.717 123.063C333.141 124.012 331.842 125.169 330.82 126.533C328.862 129.107 327.809 131.771 327.661 134.523ZM402.059 150.557L404.626 153.387C399.849 157.527 395.219 160.119 390.737 161.163C389.752 161.389 388.779 161.501 387.819 161.501C381.206 161.501 375.825 159.491 371.676 155.469C367.551 151.53 365.488 146.387 365.488 140.04C365.488 133.728 367.427 128.324 371.306 123.828C375.579 118.94 381.126 116.496 387.948 116.496C392.664 116.496 396.647 118.133 399.898 121.408C403.358 124.825 405.088 129.268 405.088 134.737L402.964 136.57L373.56 138.616C373.621 143.884 375.394 148.095 378.879 151.251C382.007 154.027 385.645 155.415 389.795 155.415C393.944 155.415 398.033 153.796 402.059 150.557ZM373.874 134.523L397.054 132.477C396.844 127.672 394.923 124.374 391.291 122.582C389.998 121.942 388.342 121.621 386.322 121.621C384.315 121.621 382.518 122.102 380.929 123.063C379.353 124.012 378.054 125.169 377.032 126.533C375.086 129.107 374.034 131.771 373.874 134.523ZM438.815 122.138C434.209 122.138 429.592 123.674 424.962 126.747V155.896L430.688 156.892V160.505H411.756V156.892L417.611 155.896V124.273L411.756 123.276V119.664L424.205 116.496V122.138C430.275 118.377 435.909 116.496 441.105 116.496C447.36 116.496 451.436 119 453.332 124.006C453.96 125.691 454.274 127.66 454.274 129.914V155.896L460 156.892V160.505H441.105V156.892L446.923 155.896V130.751C446.923 125.009 444.22 122.138 438.815 122.138Z" fill="#EAEFF3"/>
</g>
</g>
</g>
</g>
</g>
</g>
</g>
</g>
<defs>
<clipPath id="clip0_5_14">
<rect width="460" height="277" fill="white"/>
</clipPath>
<clipPath id="clip1_5_14">
<rect width="460" height="92.6628" fill="white" transform="translate(0 92.1686)"/>
</clipPath>
<clipPath id="clip2_5_14">
<rect width="460" height="92.6628" fill="white" transform="translate(0 92.1686)"/>
</clipPath>
<clipPath id="clip3_5_14">
<rect width="460" height="92.6628" fill="white" transform="translate(0 92.1686)"/>
</clipPath>
<clipPath id="clip4_5_14">
<rect width="460" height="92.6628" fill="white" transform="translate(0 92.1686)"/>
</clipPath>
<clipPath id="clip5_5_14">
<rect width="460" height="92.6628" fill="white" transform="translate(0 92.1686)"/>
</clipPath>
<clipPath id="clip6_5_14">
<rect width="460" height="92.6628" fill="white" transform="translate(0 92.1686)"/>
</clipPath>
<clipPath id="clip7_5_14">
<rect width="460" height="92.6628" fill="white" transform="translate(0 92.1686)"/>
</clipPath>
</defs>
</svg>
