<svg width="15" height="15" viewBox="0 0 15 15" fill="none" xmlns="http://www.w3.org/2000/svg">
<path d="M7.5625 0C7.23633 0 6.91077 0.0742936 6.62071 0.222814L1.04258 3.07315C0.476093 3.36158 0.125 3.89536 0.125 4.46469V10.7434C0.125 11.3343 0.495945 11.8771 1.09342 12.1602L2.92133 13.0262C3.20271 13.1597 3.50734 13.2238 3.81228 13.2238C4.13953 13.2238 4.46265 13.1474 4.75891 12.9968C5.32912 12.703 5.66923 12.1842 5.66923 11.6073V4.77999H4.42965V11.6073C4.42965 11.8839 4.21874 12.0235 4.12701 12.0698C4.03652 12.1161 3.79339 12.2127 3.51449 12.0803L1.68901 11.2164C1.48943 11.1217 1.36458 10.9404 1.36458 10.7434V4.46469C1.36458 4.27527 1.48122 4.097 1.66964 4.00014L7.24776 1.1498C7.44114 1.05079 7.68386 1.05187 7.87724 1.1498L13.4554 4.00014C13.6425 4.097 13.7604 4.27527 13.7604 4.46469V10.7476C13.7604 10.9413 13.6367 11.1237 13.4384 11.2206L7.86029 13.8586C7.67435 13.9447 7.45065 13.9447 7.26471 13.8586L6.17523 13.3415C5.9645 13.5675 5.70313 13.7623 5.39323 13.9238C5.29406 13.9776 5.19461 14.0197 5.09544 14.052L6.66913 14.8045C6.95423 14.9337 7.2526 15 7.5625 15C7.8724 15 8.17077 14.9337 8.45587 14.8045L14.034 12.1581C14.629 11.8783 15 11.3395 15 10.7476V4.46469C15 3.89536 14.6501 3.36158 14.0848 3.07315L8.50671 0.222814C8.21603 0.0742937 7.88867 0 7.5625 0ZM9.36135 4.62234C7.40281 4.62234 6.41008 5.21504 6.41008 6.38383C6.41008 7.7076 8.16614 7.90455 9.01029 7.99818C9.13177 8.01217 9.2395 8.02413 9.32503 8.03812L9.69546 8.09487C10.9846 8.28214 11.2813 8.40908 11.2813 8.76962C11.2813 8.94397 11.2802 9.47169 9.36135 9.47169C7.73378 9.47169 7.40029 9.05238 7.40029 8.42279H6.16071C6.16071 9.39355 6.71608 10.5479 9.36135 10.5479C11.9719 10.5479 12.5208 9.5811 12.5208 8.76962C12.5208 7.41572 11.0057 7.19376 9.90125 7.03125L9.54535 6.9787C9.44246 6.96256 9.3127 6.94752 9.16766 6.93245C8.37929 6.8442 7.64966 6.71741 7.64966 6.38593C7.64966 6.14593 7.64824 5.69965 9.36135 5.69857C10.5005 5.69857 11.0803 6.02406 11.0803 6.6655H12.3199C12.3199 5.67859 11.5405 4.62234 9.36135 4.62234Z" fill="white"/>
</svg>
