<svg width="14" height="16" viewBox="0 0 14 16" fill="none" xmlns="http://www.w3.org/2000/svg">
<path d="M10.1687 0.640015C9.51624 0.640015 8.95124 0.816265 8.55999 0.990015C8.17624 0.861265 7.53999 0.641265 6.77624 0.800015C6.33124 0.877515 5.92249 1.06126 5.54749 1.34251C4.92999 1.04501 4.28499 0.862515 3.60874 0.832515C3.19249 0.800015 1.49624 0.992515 0.887486 1.88751C0.663736 2.24001 0.439986 2.68751 0.343736 3.23126C0.247486 3.71126 0.247486 4.25626 0.407486 5.37626C0.503736 6.14376 0.632486 6.65626 0.919986 7.71126C0.952486 7.80751 1.11249 8.32001 1.59249 9.72876C1.68749 9.98376 1.87999 10.4638 2.26374 10.9113C2.51999 11.2313 2.77624 11.4238 3.09624 11.4238C3.51249 11.4238 3.79999 11.1363 4.05624 10.8163C4.07499 10.795 4.09499 10.7713 4.11374 10.75C4.08999 10.7875 4.06874 10.8288 4.05624 10.88C3.99249 11.2 4.37624 11.4563 4.69624 11.5838C4.95249 11.7113 5.23999 11.7438 5.46374 11.7438C5.75124 11.7438 5.97624 11.68 6.10374 11.6488C6.21374 11.6113 6.45124 11.5088 6.70499 11.34C6.71624 12.1575 6.72374 13.1225 6.74374 13.3438C6.83999 14.1763 7.06374 14.7513 7.47999 15.0713C7.79999 15.3275 8.37624 15.36 8.40874 15.36C8.98374 15.36 9.87999 14.9763 10.2637 14.3688C10.4562 14.08 10.52 13.8238 10.5837 13.4713C10.6475 13.28 10.7112 12.16 10.7437 11.9363C10.7875 11.5825 10.8212 11.2338 10.855 10.895C11.0662 10.95 11.3262 11.0088 11.6087 11.0088C12.12 11.0088 12.7925 10.6563 12.92 10.5913C13.1762 10.4 13.6875 9.95251 13.4637 9.56876C13.3362 9.34376 13.1437 9.34376 12.6637 9.40876C12.6637 9.40876 11.8962 9.50376 11.8312 9.47126C11.785 9.45376 11.7137 9.40876 11.6337 9.35001C11.8 9.09251 11.9475 8.83751 12.12 8.60876C12.5037 7.87251 12.7287 7.29626 12.8887 6.84876C13.1762 6.04876 13.3362 5.40751 13.4312 4.96001C13.6562 4.00001 13.72 3.55251 13.5912 3.04001C13.3362 2.14376 12.4075 1.37626 12.0237 1.15251C11.7675 1.02376 11.1287 0.640015 10.1687 0.640015ZM10.1687 1.28001C10.9687 1.28001 11.5125 1.60001 11.8 1.72751C12.1525 1.92001 12.9525 2.56001 13.0162 3.16751C13.0487 3.52001 13.08 3.87251 12.8562 4.80001C12.7287 5.24751 12.6 5.82376 12.3112 6.62376C12.1512 7.07126 11.96 7.61626 11.5762 8.28876C11.5662 8.30501 11.555 8.32251 11.545 8.34001C11.5825 8.20501 11.6087 8.09626 11.6087 8.09626C11.6725 7.77626 11.6725 7.52001 11.64 7.13626C11.6075 6.94376 11.5762 6.46376 11.5762 6.27126C11.5762 6.17626 11.6712 5.18376 11.7037 4.83126C11.7362 4.25626 11.3837 3.55126 11.2887 3.42376C10.8087 2.68751 10.5525 2.27251 10.04 1.85626C9.91249 1.74751 9.69374 1.56626 9.39624 1.38376C9.63124 1.32626 9.89124 1.28001 10.1687 1.28001ZM7.34124 1.41126C7.75874 1.42126 8.11249 1.53626 8.37624 1.63251C9.04874 1.85626 9.46374 2.20751 9.65624 2.36751C10.0725 2.72001 10.2962 3.07251 10.7762 3.80876C10.8112 3.87876 10.9025 4.02751 10.975 4.23501C10.32 4.17501 9.88499 4.40501 9.62374 4.64001C9.23999 4.96001 9.27124 5.44001 9.30374 5.79126C9.30374 6.04751 9.36874 6.36876 9.84874 7.45626C10.04 7.93626 10.2312 8.44751 10.4237 8.80001C10.5237 8.99876 10.6462 9.18126 10.7775 9.34376C10.7012 9.38251 10.6237 9.43251 10.5512 9.50376C10.36 9.72751 10.3275 9.95251 10.2637 10.3688C10.2 10.6888 10.1362 11.36 10.1037 11.9038C10.1037 12.1275 10.0087 13.2163 9.97624 13.3763C9.87999 13.6963 9.84749 13.8563 9.71999 14.0488C9.49624 14.4 8.79249 14.6888 8.37624 14.6563C8.24874 14.6563 8.05624 14.6563 7.89624 14.5288C7.54374 14.2725 7.41624 13.6963 7.38374 13.2488C7.35124 12.9288 7.38374 10.6238 7.31999 10.1113C7.28749 9.98376 7.25624 9.66376 6.99999 9.44001C6.89249 9.35001 6.66999 9.30376 6.45999 9.27251C6.46249 9.16501 6.46874 9.05751 6.48874 8.96001C6.51999 8.76751 6.58374 8.67126 6.64874 8.51126C6.67999 8.41626 6.74374 8.28876 6.80874 8.12876C7.09624 7.23251 7.03124 6.04751 6.87124 5.31126C6.83999 5.24751 6.71124 4.73626 6.26374 4.44876C5.78374 4.16001 5.27124 4.32001 4.98374 4.41626C4.86499 4.44876 4.74749 4.50001 4.62999 4.56001C4.64999 4.42626 4.66749 4.29126 4.69624 4.16001C4.82374 3.52001 4.95249 2.97626 5.36874 2.43251C5.81624 1.88751 6.32749 1.53626 6.90374 1.44001C7.05624 1.41626 7.20249 1.40751 7.34124 1.41126ZM3.38999 1.46751C3.46499 1.46626 3.52874 1.46751 3.57624 1.47251C4.07624 1.49876 4.55499 1.61626 5.02999 1.81626C4.97124 1.88126 4.91249 1.94626 4.85624 2.01626C4.31249 2.65626 4.18374 3.32751 4.05624 4.00001C3.89624 4.80001 3.86374 5.63126 3.99124 6.46376L3.92874 7.07126C3.89624 7.39126 3.83124 8.00001 4.18374 8.64001C4.30749 8.85251 4.44374 9.03251 4.59374 9.18626C4.26874 9.61626 3.92374 10.0225 3.57624 10.4C3.38374 10.6238 3.22374 10.7838 3.09624 10.7838C3.06374 10.7838 2.93624 10.72 2.74374 10.4963C2.39124 10.1125 2.26374 9.69626 2.19999 9.53626C1.81624 8.38376 1.59249 7.64751 1.55999 7.55126C1.30374 6.52751 1.17624 6.01626 1.04749 5.28001C0.887486 4.25626 0.887486 3.74376 0.983736 3.32876C1.07999 2.88001 1.23999 2.52751 1.39999 2.27251C1.79249 1.65626 2.86999 1.48126 3.38999 1.46751ZM10.7325 4.84001C10.835 4.84001 10.9462 4.85251 11.0637 4.87751C11.06 5.17626 10.9362 6.11376 10.9362 6.24001C10.9362 6.49626 11 7.00751 11 7.20001C11.0325 7.55251 11.0325 7.74376 11 8.00001C11 8.00001 10.9525 8.22876 10.9037 8.39126C10.755 8.05501 10.59 7.65376 10.3912 7.20001C9.91124 6.11251 9.87999 5.88876 9.87999 5.72876C9.87999 5.50376 9.87999 5.21626 10.0712 5.08876C10.2512 4.92876 10.47 4.84251 10.7325 4.84001ZM5.76499 4.93376C5.82874 4.94126 5.88749 4.96001 5.94374 4.99126C6.19999 5.12001 6.26374 5.44001 6.26374 5.44001C6.42374 6.14376 6.48749 7.20001 6.23124 7.90376C6.19999 8.03126 6.13624 8.12751 6.10374 8.22376C6.03999 8.38376 5.97624 8.54376 5.91124 8.83126C5.89499 8.95001 5.88749 9.06751 5.88374 9.18501C5.66249 9.13876 5.45374 9.06001 5.30374 8.96001C5.04749 8.83251 4.85624 8.60751 4.72874 8.35126C4.50374 7.87126 4.53624 7.42376 4.56874 7.16876L4.63124 6.43126C4.58624 6.07126 4.56499 5.71001 4.56999 5.35126C4.71749 5.22501 4.90999 5.09626 5.17624 5.02376C5.36874 4.97626 5.57874 4.91001 5.76499 4.93376ZM10.4837 5.14876C10.4 5.15251 10.3112 5.16751 10.2637 5.18376C10.1362 5.21626 10.1037 5.21626 10.0712 5.28001C10.04 5.34376 10.1362 5.44001 10.1687 5.50376C10.2 5.50376 10.2962 5.60001 10.4237 5.56876C10.52 5.53626 10.5837 5.47251 10.6162 5.44001C10.6487 5.40751 10.7762 5.24751 10.68 5.18376C10.6475 5.15126 10.5675 5.14376 10.4837 5.14876ZM5.69249 5.38126C5.65749 5.38376 5.62374 5.39251 5.59124 5.40876C5.55999 5.40876 5.49624 5.44001 5.46374 5.50376C5.43124 5.56751 5.46374 5.63126 5.49624 5.66376C5.55999 5.76001 5.65624 5.85626 5.81624 5.85626C5.84874 5.85626 5.97624 5.85626 6.07124 5.76001C6.07124 5.76001 6.16874 5.66376 6.16874 5.56876C6.13624 5.50376 6.07249 5.47251 5.97624 5.44001C5.90374 5.41626 5.79624 5.37376 5.69249 5.38126ZM5.10374 9.56876C5.29999 9.67376 5.53624 9.75876 5.79499 9.81751C5.72624 9.95501 5.62749 10.0688 5.52874 10.1438C5.30374 10.3038 5.01624 10.4 4.72874 10.4638C4.66374 10.4638 4.63249 10.4963 4.56874 10.4963C4.41374 10.54 4.26374 10.5888 4.16124 10.695C4.47499 10.3463 4.78999 9.96126 5.10374 9.56876ZM11.2737 9.82501C11.4137 9.93001 11.5512 10.0075 11.6712 10.0488C11.8637 10.1125 12.0237 10.1125 12.6 10.0488C12.5037 10.1438 12.2162 10.3038 11.8 10.3688C11.5325 10.395 11.2 10.3313 10.93 10.2538C10.955 10.0725 10.9837 9.96876 11.0312 9.92001C11.0487 9.90376 11.155 9.87126 11.2737 9.82501ZM6.45499 9.92126C6.52124 9.93251 6.57374 9.94126 6.58374 9.95126C6.64749 10.0163 6.67999 10.1763 6.67999 10.24C6.68374 10.295 6.68624 10.4338 6.68874 10.53C6.42499 10.8388 6.00124 11.01 5.91124 11.04C5.78374 11.1038 5.39999 11.1675 5.01624 11.04C5.33624 10.9438 5.65624 10.8488 5.91124 10.6563C6.13499 10.4963 6.32749 10.2413 6.45499 9.92126Z" fill="white"/>
</svg>
