<svg width="14" height="12" viewBox="0 0 14 12" fill="none" xmlns="http://www.w3.org/2000/svg">
<path d="M4.69584 0.230225C4.36997 0.230225 4.06774 0.303175 3.80001 0.457308C2.96328 0.940396 2.64479 2.11764 2.81355 3.58335C1.46011 4.17006 0.600006 5.03397 0.600006 6.00002C0.600006 6.96606 1.46011 7.82997 2.81355 8.41668C2.64487 9.88233 2.96328 11.0596 3.80001 11.5427C4.06721 11.6969 4.36944 11.7698 4.69584 11.7698C5.39057 11.7698 6.19353 11.4211 7.00001 10.8229C7.80656 11.4211 8.61048 11.7698 9.30521 11.7698C9.63108 11.7698 9.93331 11.6969 10.201 11.5427C11.0378 11.0596 11.3563 9.88238 11.1875 8.41668C12.5404 7.82998 13.4 6.96585 13.4 6.00002C13.4 5.03397 12.5399 4.17006 11.1865 3.58335C11.3551 2.1177 11.0367 0.940396 10.2 0.457308C9.93281 0.302641 9.63057 0.230225 9.30417 0.230225C8.60944 0.230225 7.80649 0.578902 7.00001 1.1771C6.19348 0.578902 5.39033 0.230225 4.69584 0.230225ZM4.69584 1.16356C5.11271 1.16356 5.66399 1.38522 6.26251 1.79585C5.9106 2.12795 5.56595 2.50558 5.23438 2.92606C4.69658 3.00317 4.18952 3.11558 3.7198 3.25627C3.71728 3.22369 3.7113 3.18951 3.70938 3.15731C3.65231 2.20797 3.86081 1.50031 4.26667 1.26564C4.38667 1.19631 4.52677 1.16356 4.69584 1.16356ZM9.30417 1.16356C9.47271 1.16356 9.61334 1.19631 9.73334 1.26564C10.1392 1.49977 10.3477 2.20797 10.2906 3.15731C10.2887 3.18951 10.2828 3.22369 10.2802 3.25627C9.81019 3.1155 9.30276 3.00318 8.76459 2.92606C8.43302 2.50564 8.0894 2.12791 7.73751 1.79585C8.33599 1.38528 8.88752 1.16356 9.30417 1.16356ZM7.00001 2.38856C7.14458 2.52015 7.28815 2.65923 7.43334 2.81147C7.28946 2.80664 7.14634 2.80002 7.00001 2.80002C6.85403 2.80002 6.71126 2.80666 6.56771 2.81147C6.71278 2.65939 6.85557 2.52003 7.00001 2.38856ZM7.00001 3.73335C7.44197 3.73335 7.86087 3.75805 8.25834 3.80106C8.50073 4.13052 8.73962 4.47885 8.96355 4.86668C9.17818 5.23843 9.36797 5.61894 9.53542 6.00002C9.36795 6.38132 9.17831 6.76242 8.96355 7.13439C8.74031 7.52111 8.50202 7.86719 8.26042 8.19585C7.84892 8.24087 7.42679 8.26668 7.00001 8.26668C6.55804 8.26668 6.13914 8.24198 5.74167 8.19897C5.49928 7.86951 5.26039 7.52222 5.03646 7.13439C4.8217 6.76242 4.63211 6.38132 4.46459 6.00002C4.63199 5.61894 4.82183 5.23843 5.03646 4.86668C5.25978 4.47997 5.49793 4.13284 5.73959 3.80418C6.15109 3.75916 6.57322 3.73335 7.00001 3.73335ZM9.53126 4.02189C9.74285 4.07298 9.94628 4.12813 10.1375 4.1896C10.0942 4.38536 10.0412 4.58487 9.98126 4.78647C9.91263 4.65769 9.84607 4.5285 9.77188 4.40002C9.69555 4.26785 9.6108 4.14911 9.53126 4.02189ZM4.46771 4.02293C4.38844 4.14976 4.30422 4.26828 4.22813 4.40002C4.15396 4.52852 4.08736 4.65767 4.01876 4.78647C3.95868 4.58446 3.90483 4.38471 3.86146 4.18856C4.0562 4.12703 4.25912 4.07254 4.46771 4.02293ZM2.98334 4.53127C3.09571 5.00573 3.2516 5.49757 3.45209 5.99897C3.25202 6.49919 3.09679 6.99012 2.98438 7.46356C2.0556 7.01506 1.53334 6.45675 1.53334 6.00002C1.53334 5.53122 2.04101 4.99696 2.89167 4.57189C2.92071 4.55737 2.95367 4.54545 2.98334 4.53127ZM11.0156 4.53647C11.9444 4.98497 12.4667 5.54328 12.4667 6.00002C12.4667 6.46882 11.959 7.00307 11.1083 7.42814C11.0793 7.44267 11.0463 7.45458 11.0167 7.46877C10.9042 6.99402 10.7496 6.50172 10.549 6.00002C10.7488 5.50024 10.9033 5.00951 11.0156 4.53647ZM7.00001 4.93335C6.41067 4.93335 5.93334 5.41068 5.93334 6.00002C5.93334 6.58935 6.41067 7.06668 7.00001 7.06668C7.58934 7.06668 8.06667 6.58935 8.06667 6.00002C8.06667 5.41068 7.58934 4.93335 7.00001 4.93335ZM4.01876 7.21356C4.08741 7.34239 4.15495 7.47149 4.22917 7.60002C4.30542 7.73208 4.38929 7.85101 4.46876 7.97814C4.25716 7.92705 4.05374 7.8719 3.86251 7.81043C3.90586 7.61455 3.95876 7.41529 4.01876 7.21356ZM9.98126 7.2146C10.0413 7.41642 10.0952 7.61551 10.1385 7.81147C9.94381 7.873 9.7409 7.92749 9.5323 7.9771C9.61158 7.85027 9.69579 7.73175 9.77188 7.60002C9.8459 7.47178 9.91278 7.34313 9.98126 7.2146ZM3.7198 8.74377C4.18982 8.88454 4.69725 8.99685 5.23542 9.07397C5.56709 9.4946 5.91045 9.87305 6.26251 10.2052C5.66403 10.6157 5.11268 10.8375 4.69584 10.8375C4.52731 10.8375 4.38667 10.8037 4.26667 10.7344C3.86081 10.5003 3.65231 9.7931 3.70938 8.84377C3.71134 8.81123 3.71723 8.77668 3.7198 8.74377ZM10.2802 8.74377C10.2828 8.77668 10.2887 8.81123 10.2906 8.84377C10.3477 9.7931 10.1392 10.4997 9.73334 10.7344C9.61334 10.8037 9.47324 10.8375 9.30417 10.8375C8.88733 10.8375 8.33598 10.6158 7.73751 10.2052C8.08959 9.87301 8.4339 9.49466 8.76563 9.07397C9.30343 8.99686 9.81049 8.88445 10.2802 8.74377ZM6.56667 9.18856C6.71056 9.19339 6.85367 9.20002 7.00001 9.20002C7.14634 9.20002 7.28946 9.19339 7.43334 9.18856C7.28815 9.3408 7.14458 9.47989 7.00001 9.61147C6.85543 9.47988 6.71186 9.3408 6.56667 9.18856Z" fill="white"/>
</svg>
