<svg width="16" height="10" viewBox="0 0 16 10" fill="none" xmlns="http://www.w3.org/2000/svg">
<path d="M8 0.201355C5.86667 0.201355 4.53333 1.26769 4 3.40036C4.8 2.33402 5.73333 1.93436 6.8 2.20069C7.40867 2.35269 7.84367 2.79436 8.32533 3.28302C9.10933 4.07869 10.017 5.00002 12 5.00002C14.1333 5.00002 15.4667 3.93369 16 1.80069C15.2 2.86702 14.2667 3.26702 13.2 3.00069C12.5917 2.84869 12.1567 2.40702 11.675 1.91836C10.8907 1.12236 9.98267 0.201355 8 0.201355ZM4 5.00002C1.86667 5.00002 0.533333 6.06635 0 8.19936C0.8 7.13302 1.73333 6.73302 2.8 6.99969C3.40833 7.15202 3.84333 7.59335 4.325 8.08169C5.10933 8.87769 6.01733 9.79902 8 9.79902C10.1333 9.79902 11.4667 8.73269 12 6.59969C11.2 7.66602 10.2667 8.06602 9.2 7.79935C8.59133 7.64735 8.15633 7.20569 7.67467 6.71736C6.89067 5.92136 5.983 5.00002 4 5.00002Z" fill="white"/>
</svg>
