<svg width="16" height="17" viewBox="0 0 16 17" fill="none" xmlns="http://www.w3.org/2000/svg">
<path d="M16 2.58399C15.401 2.91602 14.7995 3.16667 14.1328 3.2513C14.7995 2.75 15.3333 1.91667 15.5989 0.9987C14.9323 1.5 14.2656 1.83203 13.5338 2.0013C12.8672 1.16797 12 0.666668 11.0677 0.666668C9.26561 0.666668 7.79946 2.49935 7.79946 4.7487C7.79946 5.08399 7.79946 5.41602 7.86717 5.66667C5.1328 5.50065 2.73436 3.91537 1.1328 1.41537C0.799464 2.0013 0.666651 2.75 0.666651 3.4987C0.666651 4.91797 1.26561 6.16797 2.1328 6.91667C1.59894 6.83203 1.06769 6.66602 0.666651 6.41537C0.666651 6.41537 0.666651 6.41537 0.666651 6.5C0.666651 8.4987 1.79946 10.1654 3.26561 10.5007C2.99998 10.582 2.73436 10.6667 2.40103 10.6667C2.20051 10.6667 1.99998 10.6667 1.79946 10.582C2.20051 12.2487 3.40103 13.4173 4.86717 13.4173C3.73436 14.5013 2.33332 15.1654 0.799464 15.1654C0.533839 15.1654 0.26561 15.1654 -1.52588e-05 15.084C1.46613 16.2494 3.20051 16.9167 4.99998 16.9167C11.0677 16.9167 14.3333 10.6667 14.3333 5.25C14.3333 5.08399 14.3333 4.91797 14.3333 4.7487C15 4.16602 15.5338 3.41732 16 2.58399Z" fill="white"/>
</svg>
